<?xml version="1.0" encoding="utf-8"?>
<!-- Generator: Adobe Illustrator 27.8.0, SVG Export Plug-In . SVG Version: 6.00 Build 0)  -->
<svg version="1.1" id="Layer_1" xmlns="http://www.w3.org/2000/svg" xmlns:xlink="http://www.w3.org/1999/xlink" x="0px" y="0px"
	 viewBox="0 0 1195 1435.2" style="enable-background:new 0 0 1195 1435.2;" xml:space="preserve">
<style type="text/css">
	.st0{fill:#D0FDAD;}
	.st1{fill:#FEFFAE;}
	.st2{fill:#FAE1B4;}
	.st3{fill:#F6C96D;}
	.st4{fill:#F8F4A0;}
</style>
<g id="_x3C_5">
	<path class="st0" d="M209.3,1352.9c-13.5-6.5-26.1-10.7-26.1-10.7c-21.1-7.1-31.8-10.5-40.6-9.8c-14.1,1.2-15.2,7.4-34.3,9.2
		c-3,0.3-21.3,2-23.5-3.9c-0.9-2.6,2.1-4.8,3.3-8.3c2-5.7-0.4-15.4-20.1-33.3c4.4-0.7,10.8-2,18.2-4.2c13.8-4.1,21.3-6.2,24-12.2
		c2.7-6.2-1.2-10.1-0.6-17c0.7-7.3,6.7-16.9,29.7-26.8c-1.2-6.1-1.8-15,3-22.4c13.8-21.2,61.4-11.6,62.5-18.8
		c1-6.4-36.1-13.2-36.7-27.8c-0.2-5.8,5.6-6.8,14.1-21.4c8.2-14.1,6-18.7,11.9-23.2c7.5-5.6,15.1-1.5,35.1-0.2
		c23.2,1.5,42.6-2.2,42.7-4.9c0.2-3.3-29.7-3.4-32.5-15.1c-1-4.3,2.1-8.6,5.8-13.6c9.2-12.5,21.9-17.4,24.4-18.3
		c18.9-7.1,25.2,1.7,41.6-5.8c10.1-4.6,8.1-8,19.8-13.9c18.2-9.1,26.4-2.4,33.2-10.1c9.7-10.9-1.7-30.9,8.6-37.9
		c1.2-0.8,4.1-1.7,9.9-1.9c20.4-1,27.3-0.4,30.7-4.8c1.2-1.7,1.6-3.4,3.6-4.3c2.2-1.1,3.8,0,9.1,0.2c3.8,0.2,5.7,0.3,7-0.6
		c2.5-1.8,2.2-6.1,2-11.2c-0.3-4.7-0.5-8.8-3.2-12.8c-1.5-2.2-2.9-3.1-4.6-6.6c-1.2-2.4-2.1-4.1-1.5-5.9c0.6-2.2,2.9-3.3,5.6-4.5
		c5-2.4,6.1-1,8.8-2.8c3.7-2.5,4.5-7.3,5.1-10.5c0.4-2.9,1-5.9-0.7-8c-1.9-2.2-4.7-0.8-6.2-2.4c-3.2-3.3,1.8-15.8,10.8-25.1
		c2.7-2.8,2.9-2.4,13.1-10.2c9.1-7,13.6-10.5,16.8-13.6c7.3-7,14.6-14,16.8-24.6c0.8-4.1,0.2-4.8,1.4-7.2c4.2-7.9,15.6-4.6,26.2-9.4
		c15.5-6.9,23.3-28,24.2-42.4s-5.4-18-1.7-29c4-11.9,12-9.3,18-22.7c3.6-8.1,7.2-23.7,3.7-36.5c-0.6-2.5-0.6-5.1-0.9-10
		c-0.2-3.6-1-14.9-0.4-20.6c2-18.1,22.5-19.2,24.8-36.4c1.5-11.3-7-13.6-4.3-24.7c3.4-14,19.7-22,22-23.1c8.2-4,10-1.7,15.6-5.4
		c10.3-6.9,16.8-22.5,12.1-32.2c-4.7-9.6-18.2-8.9-18.4-14.4c-0.3-7.5,24.7-11,25.2-21.4c0.2-3.7-3.1-4.2-4.9-9.6
		c-2.9-8.6,3.2-14.7,10.2-31.1c8.4-19.9,6.1-26.4,13.3-30.3c8.2-4.6,14.7,2,20.8-2.9c9.3-7.4,3.5-29.4,3.2-30.4
		c-3.5-13-11.8-22.5-8.4-26.3c1.4-1.5,3.2-0.6,4.8-2.4c2.7-3.3-1.3-7.9-0.3-14c0.9-5.5,4.8-5.2,9.9-13c5.7-8.8,1.6-10.6,7.3-18.7
		c2.3-3.3,8.3-10.6,9.2-14.4c0.1-0.3,0.4-1.6,1.1-3.2c1-1.9,2.2-2.5,4-7.3c3.1-8.2,2-12.6,3.5-27.4c-1.3-3.7-2.7-8.6-3.8-14.2
		c-2.2-11.7,0.1-11.2-2-21.9c-1.3-6.7-3-11.2-0.4-15c1.5-2.1,2.5-1.4,3.7-3.4c3.4-5.4-3.8-12.1-0.7-19c1.2-2.5,2.2-1.7,3.6-4.3
		c3.8-7-3-13-0.8-20c2.3-7.7,12.3-6.9,12.9-12.2c0.8-7.1-16.5-11.2-22.6-27.1c-0.9-2.5-1.3-4.3-0.5-6c2.3-5.2,11.9-1.6,21.5-6
		c9.3-4.2,5.4-9.5,21.6-27.1c3.1-3.3,7.8-8,10.6-16c1.3-3.6,0.7-3.7,1.8-7.7c4-13.5,12.6-17.3,10.9-23.1c-1.3-4.4-7.5-6.2-9.1-6.7
		c-8.6-2.5-13,3.5-19,0.7c-5.1-2.3-8.6-10-6.4-14.5c2.5-5.2,12-5.6,17.8-2.6c4,2.1,3.8,4.7,7.7,7.3c7.4,5.1,17.7,2.3,19.7,1.7
		c10.6-3,12.8-10.3,24.2-21.3c9.5-9.2,21.1-20.5,32.4-19c11.2,1.5,18.2,15.1,32,42.3c8.8,17.3,8.3,20.7,16,31.7
		c6.7,9.5,13.9,20,26.6,26.7c19.1,10.1,28.1-0.2,45.1,9.9c15.9,9.4,14.5,25.5,26.6,26.7c9,0.9,14.6-7.2,25.3-3.8
		c3.4,1.1,6.4,3,9.5,5.2c5,3.4,9.3,6.3,8.9,9.2c-0.4,3.1-5.5,4.7-7.1,5.2c1.3,15.1,4.2,18.9,6.8,19.5c4.2,0.9,8.4-7,12-5.6
		c3.9,1.6,2.5,12.5,4.2,12.7c1.4,0.2,2-8.1,5.7-9.1c3-0.8,4.5,4.4,10.1,5.6c5.1,1,6.9-2.7,12.4-1.6c4.1,0.7,8.5,3.8,8.7,7.2
		c0.3,4.1-6,7.1-5.2,8.5c0.7,1.4,7.1-2.5,11,0c3.6,2.2,1.4,7.2,4,10.7c6.2,8.1,28.2-5.2,37.4,2.6c2.9,2.4,5.4,7.8,2.9,20.8
		c1-0.1,3.2,0,5.2,1.5c2.9,2.3,3.3,6.9,1.9,9.9c-1.3,2.8-3.7,2.6-4.1,4.9c-0.5,2.7,2.3,5.9,5.2,7.1c2,0.8,2.7,0.2,4.1,0.6
		c4.9,1.7,7.6,15.1,3.4,25.8c-2.8,6.9-7.8,11.2-12.7,15.2c-7.3,6.1-8.4,4.1-12.8,8.7c-8.1,8.6-5.6,17.7-13.2,20.3
		c-3.5,1.2-6.3,0.3-8.8,2.8c-2.9,3.1-0.7,6.5-3.1,10.3c-3.2,5.4-10.2,3.3-14.4,7.3c-5.8,5.7-1.5,19.2,0.2,24.1
		c14.9,42.3,58.3,74.9,52,84.6c-1.5,2.3-5.3,2.6-6.8,2.6c-8.3,0.5-11.9-8.5-22.5-15c-2.5-1.5-11.5-6.6-21.6-6
		c-11.4,0.6-16.1,8-31.5,18c-14,9.1-18,8.2-29.8,14.8c-40,22.6-60.7,71.8-60.7,71.8l12.2,34c0,0-21.6-4.4-31.7,4.9
		c-2.1,2-1.2,2.2-6.8,13.7c-5,10.2-7.4,15.3-11.2,20.1c-3.9,5-9.2,8.6-19.6,15.9c-12.2,8.4-14.3,8.4-20.8,14
		c-2.1,1.8-4.6,4-15.5,17.5c-23.1,28.4-23.2,31.7-30,33.9c-3.4,1.1-10.3,2.6-14.3,8.3c-0.5,0.8-2.5,3.6-1.5,5.2c2,3,13.5-3.7,16-0.5
		c1.6,2-0.6,7.3-4.1,10.4c-4.5,4.2-8.8,2.2-12.5,6.2c-2,2.2-1.8,4.1-3.1,10.3c-2,9.9-2.9,15-6.2,19.7c-5.7,8.2-14.9,10.3-16.1,10.5
		c-3.2,0.7-3.6,0.1-6,0.5c-8,1.5-13.2,9.8-25.9,35.5c-4.9,10-7.4,14.9-7.6,15.8c-5,19.4,6.7,30.1,0.9,42.1
		c-2.2,4.5-8.7,7.7-21.8,14.1c-26.6,12.8-35.5,11.4-45.2,21.2c-1.8,1.9-3.3,3.7-12.7,26.3c-18.1,43.6-17.5,48.2-25.2,53.5
		c-12.4,8.5-28.7,6.8-32.7,16.1c-0.7,1.8-2,6.1-2,11.2c0.1,2.8,0.1,6.2,1.6,6.9c1.9,0.8,4-3,8.5-5.8c6.2-3.8,15.5-4.9,17.9-1.6
		c1.7,2.3-1.3,7.8-7.3,18.7c-5.6,10.3-7.8,12-9.9,13c-3.1,1.5-5.3,1.2-8.7,3.8c-1.1,0.9-4,3.1-5.4,6.5c-2.6,6.6,3.2,10.8,1.6,17.9
		c-0.4,1.6-0.8,2.1-7.1,9.7c-11.8,14.2-13.1,16.2-14.4,18.4c-4.1,7.4-2,7.7-5.8,13.6c-6.1,9.6-12.7,10.2-12.7,15.2
		c0.1,5.8,9,7,9.3,14.2c0.2,4.8-3.4,8.6-4.2,9.4c-2.9,3.1-6,3.7-8.6,4.8c-7.8,3.4-11.6,11.3-14.5,17.4c-2.1,4.4-3.6,9.8-3.3,29.4
		c0.3,22.4,1.6,25,1.6,39c-0.1,30.8-5.7,36.3-7.6,37.9c-5.6,4.7-12.5,2.4-16.3,8.5c-1.4,2.3-1.7,4.6-1.6,9.7c0.1,18.8,3.7,22,1.6,28
		c-2.6,7.2-8.3,4.3-19.7,14.9c-10.4,9.6-7.5,13.6-18.9,23.8c-5,4.5-8.4,6.2-12.9,12.2c-2.8,3.7-7.4,10-5.6,15.6c1,3.1,3,2.9,3.5,5.7
		c0.8,4.2-3.6,6.8-9.7,14.9c-6.1,8.2-5,10.1-8.9,12.9c-2.8,2.1-8,4.4-17.8,2.6c-2.1-1.7-5.3-3.8-9.5-5.2c-8.3-2.6-13.9,0.3-26.9,2.5
		c-11.8,2-9.6,0.1-22.9,2.1c-16.7,2.5-19.9,5.5-26.3,2.9c-6.8-2.7-5.5-6.5-14-10.8c-7.6-3.8-10.6-0.9-16.6-5.5
		c-3-2.3-2.7-3.5-8.5-8.7c-6-5.4-8.2-5.8-8.9-5.8c-4.8-0.6-7.2,3.4-9.9,1.9c-2.4-1.3-1.1-4.9-3.7-7.7c-1.7-1.7-4-2.2-10.2-2.1
		c-13.6,0.4-18.5,3.8-22,1c-2.6-2.2-0.7-4.8-2.8-8.8c-4.3-8.1-15.9-5.3-33.8-12.5C220.4,1360,222.7,1359.3,209.3,1352.9z"/>
</g>
<g id="_x32_0-30_copy">
	<path class="st1" d="M209.3,1352.9c-10.9-5.3-19.8-8.4-26.1-10.7c-6-2.2-16.6-5.8-31-9.2c-16.4-3.8-24.8-5.9-36.7-5.7
		c-16.8,0.2-19.8,4.5-27.9,2.6c-8.8-2.2-20.1-10.9-28.9-41.5c6,2.5,15.8,5.2,27.4,3.5c5.6-0.8,19.8-2.9,24-12.2
		c2.7-6.2-1.2-10.1-0.6-17c0.7-7.3,6.7-16.9,29.7-26.8c-1.2-6.1-1.8-15,3-22.4c13.8-21.2,61.4-11.6,62.5-18.8
		c1-6.4-36.1-13.2-36.7-27.8c-0.2-5.8,5.6-6.8,14.1-21.4c8.2-14.1,6-18.7,11.9-23.2c7.5-5.6,15.1-1.5,35.1-0.2
		c23.2,1.5,42.6-2.2,42.7-4.9c0.2-3.3-29.7-3.4-32.5-15.1c-1-4.3,2.1-8.6,5.8-13.6c9.2-12.5,21.9-17.4,24.4-18.3
		c18.9-7.1,25.2,1.7,41.6-5.8c10.1-4.6,8.1-8,19.8-13.9c18.2-9.1,26.4-2.4,33.2-10.1c9.7-10.9-1.7-30.9,8.6-37.9
		c1.2-0.8,4.1-1.7,9.9-1.9c20.4-1,27.3-0.4,30.7-4.8c1.2-1.7,1.6-3.4,3.6-4.3c2.2-1.1,3.8,0,9.1,0.2c3.8,0.2,5.7,0.3,7-0.6
		c2.5-1.8,2.2-6.1,2-11.2c-0.3-4.7-0.5-8.8-3.2-12.8c-1.5-2.2-2.9-3.1-4.6-6.6c-1.2-2.4-2.1-4.1-1.5-5.9c0.6-2.2,2.9-3.3,5.6-4.5
		c5-2.4,6.1-1,8.8-2.8c3.7-2.5,4.5-7.3,5.1-10.5c0.4-2.9,1-5.9-0.7-8c-1.9-2.2-4.7-0.8-6.2-2.4c-3.2-3.3,1.8-15.8,10.8-25.1
		c2.7-2.8,2.9-2.4,13.1-10.2c9.1-7,13.6-10.5,16.8-13.6c7.3-7,14.6-14,16.8-24.6c0.8-4.1,0.2-4.8,1.4-7.2c4.2-7.9,15.6-4.6,26.2-9.4
		c15.5-6.9,23.3-28,24.2-42.4s-5.4-18-1.7-29c4-11.9,12-9.3,18-22.7c3.6-8.1,7.2-23.7,3.7-36.5c-0.6-2.5-0.6-5.1-0.9-10
		c-0.2-3.6-1-14.9-0.4-20.6c2-18.1,22.5-19.2,24.8-36.4c1.5-11.3-7-13.6-4.3-24.7c3.4-14,19.7-22,22-23.1c8.2-4,10-1.7,15.6-5.4
		c10.3-6.9,16.8-22.5,12.1-32.2c-4.7-9.6-18.2-8.9-18.4-14.4c-0.3-7.5,24.7-11,25.2-21.4c0.2-3.7-3.1-4.2-4.9-9.6
		c-2.9-8.6,3.2-14.7,10.2-31.1c8.4-19.9,6.1-26.4,13.3-30.3c8.2-4.6,14.7,2,20.8-2.9c9.3-7.4,3.5-29.4,3.2-30.4
		c-3.5-13-11.8-22.5-8.4-26.3c1.4-1.5,3.2-0.6,4.8-2.4c2.7-3.3-1.3-7.9-0.3-14c0.9-5.5,4.8-5.2,9.9-13c5.7-8.8,1.6-10.6,7.3-18.7
		c2.3-3.3,8.3-10.6,9.2-14.4c0.1-0.3,0.4-1.6,1.1-3.2c1-1.9,2.2-2.5,4-7.3c3.1-8.2,2-12.6,3.5-27.4c-1.3-3.7-2.7-8.6-3.8-14.2
		c-2.2-11.7,0.1-11.2-2-21.9c-1.3-6.7-3-11.2-0.4-15c1.5-2.1,2.5-1.4,3.7-3.4c3.4-5.4-3.8-12.1-0.7-19c1.2-2.5,2.2-1.7,3.6-4.3
		c3.8-7-3-13-0.8-20c2.3-7.7,12.3-6.9,12.9-12.2c0.8-7.1-16.5-11.2-22.6-27.1c-0.9-2.5-1.3-4.3-0.5-6c2.3-5.2,11.9-1.6,21.5-6
		c9.3-4.2,5.4-9.5,21.6-27.1c3.1-3.3,7.8-8,10.6-16c1.3-3.6,0.7-3.7,1.8-7.7c4-13.5,12.6-17.3,10.9-23.1c-1.3-4.4-7.5-6.2-9.1-6.7
		c-8.6-2.5-13,3.5-19,0.7c-5.1-2.3-8.6-10-6.4-14.5c2.5-5.2,12-5.6,17.8-2.6c4,2.1,3.8,4.7,7.7,7.3c7.4,5.1,17.7,2.3,19.7,1.7
		c10.6-3,12.8-10.3,24.2-21.3c9.5-9.2,21.1-20.5,32.4-19c11.2,1.5,18.2,15.1,32,42.3c8.8,17.3,8.3,20.7,16,31.7
		c6.7,9.5,13.9,20,26.6,26.7c19.1,10.1,28.1-0.2,45.1,9.9c15.9,9.4,14.5,25.5,26.6,26.7c9,0.9,14.6-7.2,25.3-3.8
		c3.4,1.1,6.4,3,9.5,5.2c5,3.4,9.3,6.3,8.9,9.2c-0.4,3.1-5.5,4.7-7.1,5.2c1.3,15.1,4.2,18.9,6.8,19.5c4.2,0.9,8.4-7,12-5.6
		c2.7,1.1,1.5,6.2,4.2,12.7c3.8,9.2,12.9,15.2,15.3,13.7c2.8-1.8-3.9-13.7,0.4-17.1c1.4-1,3.5-1,5-0.5c5.3,2.1,3,11.3,8.7,18.3
		c3.7,4.7,9.2,6,12.7,6.9c15.5,3.9,27.5-6.8,32-1.9c1.4,1.6,0.6,3.1,0.9,10c0.4,7.2,1.6,13,2.5,16.8c7.5,1,10.4,3.7,11.6,6
		c1.1,2.1,0.6,3.8,0.8,9c0,0.1,0.4,4,1.1,11.9c2.1,22.5,2.3,21.7,2.1,22.9c-1.6,9.5-7.6,7.3-16,22.6c-5.9,10.7-6.5,18-13.2,20.3
		c-3.5,1.2-6.3,0.3-8.8,2.8c-2.9,3.1-0.7,6.5-3.1,10.3c-3.2,5.4-10.2,3.3-14.4,7.3c-5.8,5.7-1.5,19.2,0.2,24.1
		c14.9,42.3,58.3,74.9,52,84.6c-1.5,2.3-5.3,2.6-6.8,2.6c-8.3,0.5-11.9-8.5-22.5-15c-2.5-1.5-11.5-6.6-21.6-6
		c-11.4,0.6-16.1,8-31.5,18c-14,9.1-18,8.2-29.8,14.8c-40,22.6-60.7,71.8-60.7,71.8l12.2,34c0,0-21.6-4.4-31.7,4.9
		c-2.1,2-1.2,2.2-6.8,13.7c-5,10.2-7.4,15.3-11.2,20.1c-3.9,5-9.2,8.6-19.6,15.9c-12.2,8.4-14.3,8.4-20.8,14
		c-2.1,1.8-4.6,4-15.5,17.5c-23.1,28.4-23.2,31.7-30,33.9c-3.4,1.1-10.3,2.6-14.3,8.3c-0.5,0.8-2.5,3.6-1.5,5.2c2,3,13.5-3.7,16-0.5
		c1.6,2-0.6,7.3-4.1,10.4c-4.5,4.2-8.8,2.2-12.5,6.2c-2,2.2-1.8,4.1-3.1,10.3c-2,9.9-2.9,15-6.2,19.7c-5.7,8.2-14.9,10.3-16.1,10.5
		c-3.2,0.7-3.6,0.1-6,0.5c-8,1.5-13.2,9.8-25.9,35.5c-4.9,10-7.4,14.9-7.6,15.8c-5,19.4,6.7,30.1,0.9,42.1
		c-2.2,4.5-8.7,7.7-21.8,14.1c-26.6,12.8-35.5,11.4-45.2,21.2c-1.8,1.9-3.3,3.7-12.7,26.3c-18.1,43.6-17.5,48.2-25.2,53.5
		c-12.4,8.5-28.7,6.8-32.7,16.1c-0.7,1.8-2,6.1-2,11.2c0.1,2.8,0.1,6.2,1.6,6.9c1.9,0.8,4-3,8.5-5.8c6.2-3.8,15.5-4.9,17.9-1.6
		c1.7,2.3-1.3,7.8-7.3,18.7c-5.6,10.3-7.8,12-9.9,13c-3.1,1.5-5.3,1.2-8.7,3.8c-1.1,0.9-4,3.1-5.4,6.5c-2.6,6.6,3.2,10.8,1.6,17.9
		c-0.4,1.6-0.8,2.1-7.1,9.7c-11.8,14.2-13.1,16.2-14.4,18.4c-4.1,7.4-2,7.7-5.8,13.6c-6.1,9.6-12.7,10.2-12.7,15.2
		c0.1,5.8,9,7,9.3,14.2c0.2,4.8-3.4,8.6-4.2,9.4c-2.9,3.1-6,3.7-8.6,4.8c-7.8,3.4-11.6,11.3-14.5,17.4c-2.1,4.4-3.6,9.8-3.3,29.4
		c0.3,22.4,1.6,25,1.6,39c-0.1,30.8-5.7,36.3-7.6,37.9c-5.4,4.5-9.7,2.6-16.3,8.5c-6,5.4-4,8.8-10.3,19c-1.2,2-1.6,2.4-18.2,20.7
		c-9.8,10.9-10.9,12.1-13.8,13.3c-5,2.1-14.6,4.1-17.7,4.6c-3,0.6-5.2,1-7.8,2.7c-3.4,2.4-4.4,5.4-6.2,8.6
		c-1.9,3.4-4.9,6.3-10.9,12.1c-18.5,17.7-40,23.8-40,23.8c-11,3.1-22.2,3.7-23.3,9.2c-0.3,1.7,0.6,2.4,0.5,5
		c-0.2,3.5-2.3,6.8-9.9,13c-9.4,7.5-14,11.3-18.1,10.7c-5.9-0.9-5.1-6.4-14-10.8c-7.6-3.8-10.6-0.9-16.6-5.5c-3-2.3-2.7-3.5-8.5-8.7
		c-6-5.4-8.2-5.8-8.9-5.8c-4.8-0.6-7.2,3.4-9.9,1.9c-2.4-1.3-1.1-4.9-3.7-7.7c-1.7-1.7-4-2.2-10.2-2.1c-13.6,0.4-18.5,3.8-22,1
		c-2.6-2.2-0.7-4.8-2.8-8.8c-4.3-8.1-15.9-5.3-33.8-12.5C220.4,1360,222.7,1359.3,209.3,1352.9z"/>
</g>
<g id="_x31_0-20">
	<path class="st2" d="M213.1,1339.5c-0.4-2.9,0.4-5.9-1.7-7.9c-2.6-2.6-6.9-0.4-8.2-2.3c-1.7-2.5,3.3-8.4,6.8-13.7
		c6.1-9.3,6.2-14.6,9.8-24c0,0,12.3-31.4,51.6-61c0.9-0.7,3.5-2.6,6.5-5.6c7.5-7.5,11.1-15.4,12.4-18.2c6.7-15.1,1.6-21,6.9-44.8
		c2.8-12.7,4.3-19.1,8.7-25.9c5.4-8.3,10.9-11.6,12.2-20.2c1.1-7.5-2.6-8.7-1.4-14.9c1.3-6.8,6.4-9.2,24-23.3
		c15.4-12.4,17.2-14.9,18.5-17.8c3.1-6.8,0.4-8.4,4.1-21.5c3-11,5-10.4,6.3-18.7c1.6-9.3-0.2-14.1,3.4-17.4c1.7-1.5,3.4-1.6,9.9-1.9
		c20.4-1,27.3-0.4,30.7-4.8c1.2-1.7,1.6-3.4,3.6-4.3c2.2-1.1,3.8,0,9.1,0.2c3.8,0.2,5.7,0.3,7-0.6c2.5-1.8,2.2-6.1,2-11.2
		c-0.3-4.7-0.5-8.8-3.2-12.8c-1.5-2.2-2.9-3.1-4.6-6.6c-1.2-2.4-2.1-4.1-1.5-5.9c0.6-2.2,2.9-3.3,5.6-4.5c5-2.4,6.1-1,8.8-2.8
		c3.7-2.5,4.5-7.3,5.1-10.5c0.4-2.9,1-5.9-0.7-8c-1.9-2.2-4.7-0.8-6.2-2.4c-3.2-3.3,1.8-15.8,10.8-25.1c2.7-2.8,2.9-2.4,13.1-10.2
		c9.1-7,13.6-10.5,16.8-13.6c7.3-7,14.6-14,16.8-24.6c0.8-4.1,0.2-4.8,1.4-7.2c4.2-7.9,15.6-4.6,26.2-9.4
		c15.5-6.9,23.3-28,24.2-42.4s-5.4-18-1.7-29c4-11.9,12-9.3,18-22.7c3.6-8.1,7.2-23.7,3.7-36.5c-0.5-1.9-1.6-5.4-0.9-10
		c1.1-6.9,5.6-11.4,6.9-12.7c12.8-13.2,39.7-59.6,42.3-64.1c22.4-38.8,27.2-71.2,26-77.7c-0.2-0.7-0.9-4,0.3-8.1
		c1.1-3.7,3.2-5.9,4.3-7.4c4.5-5.6,4.5-12.1,5.4-17.6c2.1-12.3,12-38.7,31.7-48.1c6.4-3,13.5-4.1,14.7-4.4c11.2-1.7,14.7,1.3,24-1.2
		c2.9-0.8,10-2.6,15.3-8.4c7-7.7,7.1-17.7,7.1-20.7c0.2-19.9-15.6-39.9-23.7-50c-0.6-0.7-1.6-1.9-2.4-3.8c-2.2-5-0.4-8.4-1.2-12.9
		c-0.8-4.2-2.9-4.2-5.9-9.5c-4.4-7.8-5.2-17.4-3.3-24.8c1.3-5.2,2.6-3.9,5.1-10.5c3.1-8.2,2-12.6,3.5-27.4c0,0,0.5-4.5,1.8-13.2
		c2.8-18.7,7-26.9,9.6-38c4.2-18.2-1.9-18.4,0-44.2c1.5-21.7,2.5-35.7,11.5-49.3c11.5-17.3,31.7-27.6,28.8-36.8
		c-0.4-1.4-1.7-3.7-3.9-9.7c-1.8-5-2.7-7.4-2.8-8.8c-1-9.9,11.7-13.9,10.9-23.1c-0.5-6.7-7.6-9.6-6.2-12.5c1.4-2.9,8.8,0.2,16.9-1.6
		c10.3-2.3,13-10.4,24.2-21.3c9.5-9.2,21.1-20.5,32.4-19c11.2,1.5,18.2,15.1,32,42.3c8.8,17.3,8.3,20.7,16,31.7
		c6.7,9.5,13.9,20,26.6,26.7c19.1,10.1,28.1-0.2,45.1,9.9c16,9.4,11.2,20.3,26.6,26.7c14.6,6.1,30.2,0.8,35,9.8c0.6,1,0.3,1,1.5,5.9
		c0,0,2.8,10.3,6.8,19.5c4.7,10.5,20,25.1,38.9,29.6c11.3,2.7,26.5,2.4,34.1,10.9c1.3,1.5,2.3,2.8,2.3,2.8
		c5.2,7.3,3.8,12.4,7.7,18.4c2.3,3.6,4.9,4.9,6.6,6.4c10.7,9.8,7.4,33.1-1.6,48.3c-0.9,1.7-0.6,0.9-11.3,13.6
		c-19.8,23.6-21.9,27.4-23.2,31.3c-0.9,2.5-3.8,11.6,0.7,29.1c12.2,48.2,58.3,74.9,52,84.6c-1.5,2.3-5.3,2.6-6.8,2.6
		c-8.3,0.5-11.9-8.5-22.5-15c-2.5-1.5-11.5-6.6-21.6-6c-11.4,0.6-16.1,8-31.5,18c-14,9.1-18,8.2-29.8,14.8
		c-40,22.6-60.7,71.8-60.7,71.8l0,0l12.2,34l0,0c0,0-21.6-4.4-31.7,4.9c-2.1,2-1.2,2.2-6.8,13.7c-5,10.2-7.4,15.3-11.2,20.1
		c-3.9,5-9.2,8.6-19.6,15.9c-12.2,8.4-14.3,8.4-20.8,14c-2.1,1.8-4.6,4-15.5,17.5c-23.1,28.4-23.2,31.7-30,33.9
		c-3.4,1.1-10.3,2.6-14.3,8.3c-0.5,0.8-2.5,3.6-1.5,5.2c2,3,13.5-3.7,16-0.5c1.6,2-0.6,7.3-4.1,10.4c-4.5,4.2-8.8,2.2-12.5,6.2
		c-2,2.2-1.8,4.1-3.1,10.3c-2,9.9-2.9,15-6.2,19.7c-5.7,8.2-14.9,10.3-16.1,10.5c-3.2,0.7-3.6,0.1-6,0.5c-8,1.5-13.2,9.8-25.9,35.5
		c-4.9,10-7.4,14.9-7.6,15.8c-5,19.4,6.7,30.1,0.9,42.1c-2.2,4.5-8.7,7.7-21.8,14.1c-26.6,12.8-35.5,11.4-45.2,21.2
		c-1.8,1.9-3.3,3.7-12.7,26.3c-18.1,43.6-17.5,48.2-25.2,53.5c-12.4,8.5-28.7,6.8-32.7,16.1c-0.7,1.8-2,6.1-2,11.2
		c0.1,2.8,0.1,6.2,1.6,6.9c1.9,0.8,4-3,8.5-5.8c6.2-3.8,15.5-4.9,17.9-1.6c1.7,2.3-1.3,7.8-7.3,18.7c-5.6,10.3-7.8,12-9.9,13
		c-3.1,1.5-5.3,1.2-8.7,3.8c-1.1,0.9-4,3.1-5.4,6.5c-2.6,6.6,3.2,10.8,1.6,17.9c-0.4,1.6-0.8,2.1-7.1,9.7
		c-11.8,14.2-13.1,16.2-14.4,18.4c-4.1,7.4-2,7.7-5.8,13.6c-6.1,9.6-12.7,10.2-12.7,15.2c0.1,5.8,9,7,9.3,14.2
		c0.2,4.8-3.4,8.6-4.2,9.4c-2.9,3.1-6,3.7-8.6,4.8c-7.8,3.4-11.6,11.3-14.5,17.4c-2.1,4.4-3.6,9.8-3.3,29.4c0.4,22.6,2.6,25,1.6,39
		c-1.1,14.5-1.7,23.5-8.4,28.9c-8.2,6.6-16.8,0.3-24.4,7.3c-7.2,6.6-1,13.8-7.8,24.8c-7.2,11.7-16.1,7.1-31,22.9
		c-3.7,3.9-6.1,7.4-12,11.1c-7.1,4.6-9.3,3-15.5,6.4c-11.7,6.6-9.3,15-21.1,22c-8.1,4.8-10.6,1.6-16.5,6.5
		c-8.4,7-4.4,14.4-12.1,21.2c-7.2,6.5-12.7,1.7-23.3,9.2c-4.1,2.9-3.1,3.5-11.9,12.1c-8.1,7.9-12.2,11.8-15.9,12.5
		c-8.2,1.6-15.1-6.8-22.3-13c-15.2-13.2-19-6-62.5-24.4c-18.4-7.8-8.3-5.1-46.6-26.8C222,1350.9,214.1,1346.5,213.1,1339.5z"/>
</g>
<g id="_x32_0-30">
	<path class="st3" d="M923.4,423.7c-4,2.9-12.8,10-18,22.7c-2,5.1-6.1,17.6-2.1,32.3c1.6,5.9,5.3,19.2,17.4,25.5
		c12.9,6.8,26.8,1.1,34.9-2.2c18.7-7.5,27.8-22.2,30.7-26.9c5.3-8.8,11.9-19.8,9.1-32c-4.4-19.2-29.3-30.5-48.8-28.7
		C934.8,415.8,926.3,421.7,923.4,423.7z"/>
	<path class="st3" d="M831.2,75.7c6,1.4,5.1,4,12.7,6.9c2.7,1.1,16.3,6.2,25.1-0.3c6.2-4.7,6.9-13,7.4-17.8c0.8-8.6-2-15.4-7.6-28.4
		c-5.2-12.1-7.9-18.2-11.8-19c-8.1-1.9-19.2,10.5-24.2,20.3c-2,4-4,9.6-9.4,17.9c-3.9,6-5.3,7-6.3,7.6c-6.5,3.6-12.2-1.3-17.8,2.6
		c-2.9,2-5.2,5.9-4.2,8.4c1.3,3.4,8.1,3.7,12.4,3.9C819.7,78.4,822.9,73.9,831.2,75.7z"/>
	<path class="st4" d="M768.4,802.5c-4.4-1.1-5.8-9.5-6-10.5c-0.9-5.4,0.7-12.7,4.7-14.5c1.1-0.5,1.9-0.4,2.9-1.3
		c2.1-1.8,1.6-4.5,2.4-6.2c2.2-4.6,15.5-6.3,18.9-1.7C797.1,776.1,777.4,804.8,768.4,802.5z"/>
	<path class="st3" d="M519.2,1194.9c-0.3,1-1.4,5.1-0.1,10c0.4,1.6,2.6,9.4,10.2,12.1c0.5,0.2,7.4,2.5,12.9-1.2
		c7.5-5,7.8-17.7,2.7-25.4c-0.6-0.9-6-8.7-13.8-7.8C522.7,1183.7,519.4,1194.1,519.2,1194.9z"/>
</g>
</svg>
