<?xml version="1.0" encoding="utf-8"?>
<!-- Generator: Adobe Illustrator 27.8.0, SVG Export Plug-In . SVG Version: 6.00 Build 0)  -->
<svg version="1.1" id="Layer_1" xmlns="http://www.w3.org/2000/svg" xmlns:xlink="http://www.w3.org/1999/xlink" x="0px" y="0px"
	 viewBox="0 0 1195 1438.1" style="enable-background:new 0 0 1195 1438.1;" xml:space="preserve">
<style type="text/css">
	.st0{fill:#156550;}
	.st1{fill:#009688;}
	.st2{fill:#8BC34A;}
	.st3{fill:#FFC107;}
</style>
<g id="_x3C_5">
	<path class="st0" d="M219.7,1361.3c-13.6-6.3-26.3-10.2-26.3-10.2c-21.2-6.8-32-10-40.7-9.2c-14.1,1.4-15.1,7.7-34.2,9.7
		c-3,0.3-21.3,2.3-23.5-3.5c-1-2.6,2-4.8,3.1-8.4c1.9-5.7-0.7-15.4-20.7-33c4.3-0.8,10.7-2.2,18.1-4.5c13.7-4.3,21.2-6.5,23.8-12.6
		c2.6-6.2-1.4-10.1-0.8-17c0.6-7.3,6.4-17,29.2-27.3c-1.3-6.1-2-15,2.6-22.4c13.5-21.4,61.2-12.6,62.2-19.8
		c0.9-6.4-36.3-12.6-37.1-27.2c-0.3-5.8,5.5-6.9,13.8-21.6c8-14.2,5.7-18.8,11.6-23.4c7.4-5.7,15.1-1.7,35.1-0.8
		c23.3,1.1,42.5-2.9,42.6-5.6c0.1-3.3-29.8-2.9-32.8-14.6c-1.1-4.3,2-8.7,5.6-13.7c9-12.6,21.6-17.7,24.1-18.7
		c18.8-7.4,25.2,1.3,41.5-6.5c10-4.8,8-8.1,19.6-14.2c18.1-9.4,26.3-2.8,33.1-10.6c9.6-11.1-2.2-30.8,8-38.1c1.2-0.8,4-1.7,9.8-2.1
		c20.4-1.3,27.3-0.8,30.6-5.3c1.2-1.7,1.5-3.4,3.5-4.4c2.2-1.1,3.8-0.1,9.1,0c3.8,0.1,5.8,0.2,7-0.8c2.5-1.9,2.1-6.2,1.8-11.3
		c-0.4-4.7-0.6-8.8-3.4-12.7c-1.5-2.1-3-3.1-4.7-6.5c-1.3-2.4-2.2-4.1-1.6-5.9c0.6-2.2,2.9-3.3,5.5-4.6c5-2.4,6.1-1.1,8.7-3
		c3.6-2.6,4.4-7.4,4.9-10.6c0.4-2.9,0.9-5.9-0.9-8c-1.9-2.2-4.7-0.7-6.3-2.3c-3.3-3.3,1.5-15.9,10.3-25.3c2.6-2.8,2.9-2.4,13-10.5
		c9-7.1,13.4-10.7,16.6-13.9c7.2-7.1,14.4-14.2,16.4-24.9c0.8-4.1,0.1-4.8,1.2-7.2c4.1-8,15.6-4.9,26.1-9.9
		c15.4-7.2,22.9-28.3,23.5-42.8s-5.7-17.9-2.1-28.9c3.8-12,11.8-9.5,17.6-23c3.4-8.1,6.8-23.8,3.1-36.5c-0.7-2.4-0.6-5.1-1.1-9.9
		c-0.3-3.6-1.2-14.9-0.7-20.5c1.7-18.1,22.2-19.6,24.2-36.8c1.3-11.3-7.2-13.5-4.7-24.6c3.2-14,19.3-22.3,21.6-23.5
		c8.1-4.1,10-1.9,15.5-5.7c10.2-7,16.4-22.8,11.6-32.4c-4.9-9.5-18.3-8.6-18.6-14.1c-0.4-7.5,24.5-11.4,24.8-21.8
		c0.1-3.7-3.2-4.2-5.1-9.5c-3-8.5,2.9-14.7,9.7-31.2c8.1-20,5.7-26.5,12.8-30.6c8.1-4.7,14.8,1.7,20.8-3.3c9.1-7.5,3-29.5,2.7-30.5
		c-3.7-13-12.2-22.3-8.9-26.2c1.3-1.6,3.1-0.6,4.8-2.5c2.7-3.3-1.5-7.9-0.5-14c0.8-5.5,4.8-5.2,9.6-13.1c5.6-8.9,1.5-10.6,7-18.9
		c2.3-3.4,8.1-10.7,9-14.6c0.1-0.3,0.3-1.6,1.1-3.2c1-1.9,2.1-2.5,3.8-7.4c2.9-8.3,1.7-12.7,3.1-27.5c-1.4-3.7-2.8-8.5-4-14.1
		c-2.4-11.6-0.1-11.2-2.4-21.9c-1.4-6.7-3.2-11.1-0.6-15c1.5-2.2,2.5-1.5,3.7-3.4c3.3-5.5-4-12-1-19c1.1-2.5,2.1-1.7,3.5-4.4
		c3.7-7-3.2-12.9-1.2-20c2.2-7.8,12.2-7.1,12.7-12.4c0.6-7.1-16.7-11-23-26.7c-1-2.5-1.4-4.3-0.6-6c2.2-5.3,11.9-1.8,21.4-6.3
		c9.2-4.3,5.2-9.6,21.2-27.4c3.1-3.3,7.7-8.2,10.3-16.2c1.2-3.7,0.6-3.7,1.7-7.7c3.8-13.6,12.3-17.5,10.6-23.3
		c-1.4-4.4-7.6-6.1-9.3-6.5c-8.6-2.4-13,3.7-19,1c-5.2-2.3-8.8-9.8-6.6-14.4c2.5-5.2,11.9-5.8,17.8-2.9c4,2.1,3.9,4.6,7.8,7.2
		c7.5,5,17.7,2,19.8,1.4c10.5-3.1,12.6-10.5,23.8-21.7c9.3-9.4,20.8-20.9,32.1-19.6c11.2,1.3,18.4,14.8,32.7,41.7
		c9.1,17.1,8.7,20.6,16.5,31.4c6.9,9.4,14.2,19.8,27,26.3c19.3,9.8,28.1-0.6,45.3,9.2c16.1,9.1,14.9,25.2,27,26.3
		c9,0.7,14.5-7.4,25.2-4.2c3.4,1,6.5,2.9,9.6,5c5.1,3.3,9.4,6.1,9,9.1c-0.4,3.1-5.4,4.8-7,5.3c1.5,15.1,4.6,18.8,7.1,19.3
		c4.2,0.9,8.3-7.1,11.9-5.8c3.9,1.5,2.7,12.5,4.4,12.6c1.4,0.1,1.8-8.1,5.5-9.1c3-0.8,4.6,4.3,10.1,5.4c5.1,1,6.8-2.9,12.4-1.8
		c4.1,0.7,8.5,3.7,8.8,7.1c0.3,4.1-5.9,7.2-5.1,8.6s7.1-2.6,11-0.2c3.6,2.1,1.5,7.2,4.2,10.6c6.3,8,28.2-5.7,37.4,2
		c3,2.4,5.6,7.7,3.3,20.8c1-0.1,3.2,0,5.2,1.5c3,2.3,3.5,6.9,2.1,9.8c-1.3,2.9-3.6,2.7-4,5c-0.4,2.7,2.3,5.9,5.3,7
		c2,0.8,2.7,0.1,4.1,0.6c4.9,1.6,7.9,14.9,3.8,25.7c-2.7,6.9-7.6,11.3-12.4,15.4c-7.2,6.2-8.3,4.2-12.6,8.9
		c-8,8.7-5.3,17.8-12.9,20.5c-3.5,1.3-6.3,0.4-8.7,3c-2.9,3.1-0.6,6.5-2.9,10.4c-3.1,5.5-10.2,3.5-14.3,7.6
		c-5.7,5.7-1.2,19.2,0.6,24.1c15.6,42.1,59.5,73.9,53.3,83.8c-1.5,2.4-5.2,2.7-6.7,2.7c-8.3,0.6-12.1-8.4-22.7-14.6
		c-2.6-1.4-11.7-6.4-21.7-5.7c-11.4,0.8-16,8.3-31.2,18.5c-13.9,9.3-17.9,8.5-29.5,15.3c-39.6,23.2-59.5,72.8-59.5,72.8l12.7,33.8
		c0,0-21.7-4.1-31.6,5.4c-2.1,2-1.2,2.2-6.6,13.8c-4.8,10.3-7.2,15.5-10.9,20.3c-3.8,5-9,8.7-19.4,16.2c-12,8.6-14.1,8.7-20.6,14.3
		c-2.1,1.8-4.5,4.1-15.2,17.7c-22.6,28.8-22.7,32-29.5,34.4c-3.4,1.2-10.3,2.7-14.2,8.6c-0.5,0.8-2.4,3.7-1.5,5.2
		c2,3,13.5-3.9,16-0.7c1.6,1.9-0.5,7.3-3.9,10.5c-4.5,4.3-8.8,2.4-12.4,6.4c-2,2.2-1.8,4.1-2.9,10.4c-1.8,10-2.7,15.1-5.9,19.8
		c-5.5,8.2-14.8,10.5-15.9,10.8c-3.2,0.8-3.6,0.2-6,0.6c-8,1.7-13,10.1-25.3,35.9c-4.7,10.1-7.1,15.1-7.3,15.9
		c-4.7,19.5,7.2,30,1.5,42.1c-2.1,4.6-8.6,7.9-21.6,14.4c-26.4,13.2-35.3,12-44.9,22c-1.8,1.9-3.2,3.8-12.2,26.5
		c-17.4,43.9-16.7,48.5-24.3,53.9c-12.2,8.7-28.6,7.2-32.4,16.6c-0.7,1.8-2,6.1-1.8,11.3c0.1,2.8,0.2,6.2,1.7,6.9
		c1.9,0.8,4-3,8.4-5.9c6.1-3.9,15.4-5.2,17.9-1.9c1.7,2.2-1.2,7.8-7,18.9c-5.4,10.3-7.6,12.1-9.6,13.1c-3.1,1.5-5.3,1.3-8.6,4
		c-1.1,0.9-4,3.1-5.3,6.6c-2.5,6.6,3.4,10.7,1.9,17.9c-0.3,1.6-0.8,2.1-7,9.8c-11.6,14.4-12.8,16.4-14.1,18.6
		c-4,7.5-1.9,7.7-5.6,13.7c-6,9.7-12.6,10.4-12.4,15.4c0.2,5.8,9.1,6.9,9.6,14.1c0.3,4.8-3.3,8.7-4,9.5c-2.9,3.1-5.9,3.8-8.5,4.9
		c-7.8,3.6-11.4,11.5-14.2,17.6c-2,4.4-3.5,9.8-2.8,29.5c0.7,22.4,2,24.9,2.2,39c0.4,30.8-5.1,36.4-7,38c-5.5,4.8-12.5,2.6-16.1,8.8
		c-1.4,2.4-1.6,4.6-1.5,9.7c0.4,18.8,4.1,21.9,2,27.9c-2.4,7.2-8.3,4.4-19.5,15.2c-10.2,9.8-7.3,13.8-18.5,24.1
		c-4.9,4.6-8.3,6.3-12.7,12.4c-2.7,3.7-7.3,10.1-5.3,15.7c1,3.1,3,2.9,3.6,5.6c0.9,4.2-3.5,6.8-9.4,15.1c-5.9,8.3-4.8,10.2-8.7,13
		c-2.8,2.1-8,4.5-17.8,2.9c-2.1-1.7-5.3-3.7-9.6-5c-8.3-2.4-13.9,0.5-26.8,2.9c-11.7,2.2-9.6,0.2-22.9,2.5
		c-16.7,2.8-19.8,5.9-26.3,3.3c-6.8-2.6-5.6-6.4-14.2-10.5c-7.6-3.7-10.6-0.8-16.7-5.2c-3.1-2.3-2.8-3.4-8.7-8.5
		c-6.1-5.3-8.3-5.6-9-5.7c-4.8-0.5-7.2,3.5-9.8,2.1c-2.4-1.2-1.1-4.9-3.8-7.6c-1.7-1.6-4.1-2.2-10.3-1.9c-13.6,0.7-18.5,4.1-22,1.4
		c-2.6-2.1-0.8-4.7-3-8.7c-4.4-8.1-16-5-34-11.9C230.9,1368.3,233.1,1367.5,219.7,1361.3z"/>
</g>
<g id="_x32_0-30_copy">
	<path class="st1" d="M219.7,1361.3c-11-5.1-19.9-8.1-26.3-10.2c-6.1-2.1-16.7-5.5-31.1-8.7c-16.5-3.5-24.9-5.5-36.8-5.1
		c-16.8,0.5-19.7,4.8-27.8,3c-8.9-2.1-20.3-10.6-29.6-41.1c6.1,2.4,15.9,4.9,27.5,3.1c5.6-0.9,19.8-3.2,23.8-12.6
		c2.6-6.2-1.4-10.1-0.8-17c0.6-7.3,6.4-17,29.2-27.3c-1.3-6.1-2-15,2.6-22.4c13.5-21.4,61.2-12.6,62.2-19.8
		c0.9-6.4-36.3-12.6-37.1-27.2c-0.3-5.8,5.5-6.9,13.8-21.6c8-14.2,5.7-18.8,11.6-23.4c7.4-5.7,15.1-1.7,35.1-0.8
		c23.3,1.1,42.5-2.9,42.6-5.6c0.1-3.3-29.8-2.9-32.8-14.6c-1.1-4.3,2-8.7,5.6-13.7c9-12.6,21.6-17.7,24.1-18.7
		c18.8-7.4,25.2,1.3,41.5-6.5c10-4.8,8-8.1,19.6-14.2c18.1-9.4,26.3-2.8,33.1-10.6c9.6-11.1-2.2-30.8,8-38.1c1.2-0.8,4-1.7,9.8-2.1
		c20.4-1.3,27.3-0.8,30.6-5.3c1.2-1.7,1.5-3.4,3.5-4.4c2.2-1.1,3.8-0.1,9.1,0c3.8,0.1,5.8,0.2,7-0.8c2.5-1.9,2.1-6.2,1.8-11.3
		c-0.4-4.7-0.6-8.8-3.4-12.7c-1.5-2.1-3-3.1-4.7-6.5c-1.3-2.4-2.2-4.1-1.6-5.9c0.6-2.2,2.9-3.3,5.5-4.6c5-2.4,6.1-1.1,8.7-3
		c3.6-2.6,4.4-7.4,4.9-10.6c0.4-2.9,0.9-5.9-0.9-8c-1.9-2.2-4.7-0.7-6.3-2.3c-3.3-3.3,1.5-15.9,10.3-25.3c2.6-2.8,2.9-2.4,13-10.5
		c9-7.1,13.4-10.7,16.6-13.9c7.2-7.1,14.4-14.2,16.4-24.9c0.8-4.1,0.1-4.8,1.2-7.2c4.1-8,15.6-4.9,26.1-9.9
		c15.4-7.2,22.9-28.3,23.5-42.8s-5.7-17.9-2.1-28.9c3.8-12,11.8-9.5,17.6-23c3.4-8.1,6.8-23.8,3.1-36.5c-0.7-2.4-0.6-5.1-1.1-9.9
		c-0.3-3.6-1.2-14.9-0.7-20.5c1.7-18.1,22.2-19.6,24.2-36.8c1.3-11.3-7.2-13.5-4.7-24.6c3.2-14,19.3-22.3,21.6-23.5
		c8.1-4.1,10-1.9,15.5-5.7c10.2-7,16.4-22.8,11.6-32.4c-4.9-9.5-18.3-8.6-18.6-14.1c-0.4-7.5,24.5-11.4,24.8-21.8
		c0.1-3.7-3.2-4.2-5.1-9.5c-3-8.5,2.9-14.7,9.7-31.2c8.1-20,5.7-26.5,12.8-30.6c8.1-4.7,14.8,1.7,20.8-3.3c9.1-7.5,3-29.5,2.7-30.5
		c-3.7-13-12.2-22.3-8.9-26.2c1.3-1.6,3.1-0.6,4.8-2.5c2.7-3.3-1.5-7.9-0.5-14c0.8-5.5,4.8-5.2,9.6-13.1c5.6-8.9,1.5-10.6,7-18.9
		c2.3-3.4,8.1-10.7,9-14.6c0.1-0.3,0.3-1.6,1.1-3.2c1-1.9,2.1-2.5,3.8-7.4c2.9-8.3,1.7-12.7,3.1-27.5c-1.4-3.7-2.8-8.5-4-14.1
		c-2.4-11.6-0.1-11.2-2.4-21.9c-1.4-6.7-3.2-11.1-0.6-15c1.5-2.2,2.5-1.5,3.7-3.4c3.3-5.5-4-12-1-19c1.1-2.5,2.1-1.7,3.5-4.4
		c3.7-7-3.2-12.9-1.2-20c2.2-7.8,12.2-7.1,12.7-12.4c0.6-7.1-16.7-11-23-26.7c-1-2.5-1.4-4.3-0.6-6c2.2-5.3,11.9-1.8,21.4-6.3
		c9.2-4.3,5.2-9.6,21.2-27.4c3.1-3.3,7.7-8.2,10.3-16.2c1.2-3.7,0.6-3.7,1.7-7.7c3.8-13.6,12.3-17.5,10.6-23.3
		c-1.4-4.4-7.6-6.1-9.3-6.5c-8.6-2.4-13,3.7-19,1c-5.2-2.3-8.8-9.8-6.6-14.4c2.5-5.2,11.9-5.8,17.8-2.9c4,2.1,3.9,4.6,7.8,7.2
		c7.5,5,17.7,2,19.8,1.4c10.5-3.1,12.6-10.5,23.8-21.7c9.3-9.4,20.8-20.9,32.1-19.6C839.8,8,847,21.5,861.3,48.4
		c9.1,17.1,8.7,20.6,16.5,31.4c6.9,9.4,14.2,19.8,27,26.3c19.3,9.8,28.1-0.6,45.3,9.2c16.1,9.1,14.9,25.2,27,26.3
		c9,0.7,14.5-7.4,25.2-4.2c3.4,1,6.5,2.9,9.6,5c5.1,3.3,9.4,6.1,9,9.1c-0.4,3.1-5.4,4.8-7,5.3c1.5,15.1,4.6,18.8,7.1,19.3
		c4.2,0.9,8.3-7.1,11.9-5.8c2.7,1,1.6,6.2,4.4,12.6c3.9,9.1,13.2,15,15.5,13.4c2.7-1.8-4.1-13.6,0.2-17.1c1.4-1.1,3.5-1.1,5-0.5
		c5.4,2,3.2,11.2,9,18.1c3.8,4.6,9.3,5.8,12.8,6.7c15.6,3.6,27.4-7.3,31.9-2.4c1.5,1.6,0.6,3,1.1,9.9c0.5,7.2,1.8,13,2.8,16.8
		c7.5,0.9,10.4,3.5,11.7,5.8c1.1,2.1,0.7,3.7,1,8.9c0,0.1,0.4,4,1.3,11.9c2.4,22.5,2.6,21.6,2.5,22.9c-1.5,9.5-7.4,7.4-15.6,22.8
		c-5.8,10.8-6.2,18.1-12.9,20.5c-3.5,1.3-6.3,0.4-8.7,3c-2.9,3.1-0.6,6.5-2.9,10.4c-3.1,5.5-10.2,3.5-14.3,7.6
		c-5.7,5.7-1.2,19.2,0.6,24.1c15.6,42.1,59.5,73.9,53.3,83.8c-1.5,2.4-5.2,2.7-6.7,2.7c-8.3,0.6-12.1-8.4-22.7-14.6
		c-2.6-1.4-11.7-6.4-21.7-5.7c-11.4,0.8-16,8.3-31.2,18.5c-13.9,9.3-17.9,8.5-29.5,15.3c-39.6,23.2-59.5,72.8-59.5,72.8l12.7,33.8
		c0,0-21.7-4.1-31.6,5.4c-2.1,2-1.2,2.2-6.6,13.8c-4.8,10.3-7.2,15.5-10.9,20.3c-3.8,5-9,8.7-19.4,16.2c-12,8.6-14.1,8.7-20.6,14.3
		c-2.1,1.8-4.5,4.1-15.2,17.7c-22.6,28.8-22.7,32-29.5,34.4c-3.4,1.2-10.3,2.7-14.2,8.6c-0.5,0.8-2.4,3.7-1.5,5.2
		c2,3,13.5-3.9,16-0.7c1.6,1.9-0.5,7.3-3.9,10.5c-4.5,4.3-8.8,2.4-12.4,6.4c-2,2.2-1.8,4.1-2.9,10.4c-1.8,10-2.7,15.1-5.9,19.8
		c-5.5,8.2-14.8,10.5-15.9,10.8c-3.2,0.8-3.6,0.2-6,0.6c-8,1.7-13,10.1-25.3,35.9c-4.7,10.1-7.1,15.1-7.3,15.9
		c-4.7,19.5,7.2,30,1.5,42.1c-2.1,4.6-8.6,7.9-21.6,14.4c-26.4,13.2-35.3,12-44.9,22c-1.8,1.9-3.2,3.8-12.2,26.5
		c-17.4,43.9-16.7,48.5-24.3,53.9c-12.2,8.7-28.6,7.2-32.4,16.6c-0.7,1.8-2,6.1-1.8,11.3c0.1,2.8,0.2,6.2,1.7,6.9
		c1.9,0.8,4-3,8.4-5.9c6.1-3.9,15.4-5.2,17.9-1.9c1.7,2.2-1.2,7.8-7,18.9c-5.4,10.3-7.6,12.1-9.6,13.1c-3.1,1.5-5.3,1.3-8.6,4
		c-1.1,0.9-4,3.1-5.3,6.6c-2.5,6.6,3.4,10.7,1.9,17.9c-0.3,1.6-0.8,2.1-7,9.8c-11.6,14.4-12.8,16.4-14.1,18.6
		c-4,7.5-1.9,7.7-5.6,13.7c-6,9.7-12.6,10.4-12.4,15.4c0.2,5.8,9.1,6.9,9.6,14.1c0.3,4.8-3.3,8.7-4,9.5c-2.9,3.1-5.9,3.8-8.5,4.9
		c-7.8,3.6-11.4,11.5-14.2,17.6c-2,4.4-3.5,9.8-2.8,29.5c0.7,22.4,2,24.9,2.2,39c0.4,30.8-5.1,36.4-7,38c-5.3,4.6-9.7,2.8-16.1,8.8
		c-5.9,5.5-3.9,8.9-10,19.2c-1.2,2-1.6,2.4-17.8,21c-9.7,11.1-10.7,12.2-13.6,13.5c-5,2.1-14.5,4.3-17.6,4.9c-3,0.6-5.2,1.1-7.7,2.8
		c-3.4,2.5-4.3,5.5-6.1,8.7c-1.8,3.4-4.8,6.4-10.7,12.2c-18.2,18-39.6,24.4-39.6,24.4c-10.9,3.3-22.1,4.1-23.1,9.5
		c-0.3,1.7,0.7,2.3,0.5,5c-0.1,3.5-2.2,6.9-9.6,13.1c-9.2,7.6-13.8,11.6-17.9,11c-5.9-0.8-5.2-6.3-14.2-10.5
		c-7.6-3.7-10.6-0.8-16.7-5.2c-3.1-2.3-2.8-3.4-8.7-8.5c-6.1-5.3-8.3-5.6-9-5.7c-4.8-0.5-7.2,3.5-9.8,2.1c-2.4-1.2-1.1-4.9-3.8-7.6
		c-1.7-1.6-4.1-2.2-10.3-1.9c-13.6,0.7-18.5,4.1-22,1.4c-2.6-2.1-0.8-4.7-3-8.7c-4.4-8.1-16-5-34-11.9
		C230.9,1368.3,233.1,1367.5,219.7,1361.3z"/>
</g>
<g id="_x31_0-20">
	<path class="st2" d="M223.3,1347.9c-0.4-2.9,0.3-5.9-1.9-7.8c-2.7-2.5-6.9-0.3-8.3-2.1c-1.8-2.4,3.2-8.5,6.6-13.8
		c5.9-9.4,6-14.7,9.5-24.2c0,0,11.8-31.5,50.6-61.8c0.9-0.7,3.4-2.7,6.4-5.7c7.4-7.6,10.9-15.6,12.1-18.4
		c6.5-15.2,1.2-21.1,6.2-44.9c2.6-12.8,4-19.1,8.2-26c5.2-8.4,10.7-11.8,11.9-20.4c1-7.6-2.7-8.7-1.6-14.9
		c1.2-6.9,6.2-9.3,23.6-23.7c15.2-12.6,17-15.2,18.2-18.1c3-6.9,0.3-8.4,3.7-21.5c2.8-11.1,4.8-10.5,6-18.8
		c1.4-9.3-0.4-14.1,3.1-17.4c1.6-1.5,3.3-1.7,9.8-2.1c20.4-1.3,27.3-0.8,30.6-5.3c1.2-1.7,1.5-3.4,3.5-4.4c2.2-1.1,3.8-0.1,9.1,0
		c3.8,0.1,5.8,0.2,7-0.8c2.5-1.9,2.1-6.2,1.8-11.3c-0.4-4.7-0.6-8.8-3.4-12.7c-1.5-2.1-3-3.1-4.7-6.5c-1.3-2.4-2.2-4.1-1.6-5.9
		c0.6-2.2,2.9-3.3,5.5-4.6c5-2.4,6.1-1.1,8.7-3c3.6-2.6,4.4-7.4,4.9-10.6c0.4-2.9,0.9-5.9-0.9-8c-1.9-2.2-4.7-0.7-6.3-2.3
		c-3.3-3.3,1.5-15.9,10.3-25.3c2.6-2.8,2.9-2.4,13-10.5c9-7.1,13.4-10.7,16.6-13.9c7.2-7.1,14.4-14.2,16.4-24.9
		c0.8-4.1,0.1-4.8,1.2-7.2c4.1-8,15.6-4.9,26.1-9.9c15.4-7.2,22.9-28.3,23.5-42.8s-5.7-17.9-2.1-28.9c3.8-12,11.8-9.5,17.6-23
		c3.4-8.1,6.8-23.8,3.1-36.5c-0.5-1.9-1.7-5.3-1.1-9.9c1-6.9,5.4-11.4,6.7-12.8c12.6-13.4,38.7-60.2,41.3-64.8
		c21.8-39.2,26-71.6,24.7-78.1c-0.2-0.7-0.9-4,0.1-8.1c1-3.7,3.1-6,4.2-7.5c4.4-5.7,4.3-12.1,5.1-17.7c1.9-12.4,11.4-38.8,31-48.6
		c6.3-3.1,13.4-4.4,14.6-4.6c11.2-1.9,14.7,1,24-1.6c2.9-0.8,10-2.8,15.2-8.7c6.9-7.8,6.8-17.8,6.8-20.9
		c-0.1-19.9-16.3-39.7-24.5-49.7c-0.6-0.6-1.6-1.8-2.4-3.8c-2.2-5-0.5-8.4-1.4-12.9c-0.9-4.2-3-4.1-6-9.4
		c-4.6-7.8-5.5-17.3-3.7-24.7c1.2-5.3,2.5-3.9,4.9-10.6c2.9-8.3,1.7-12.7,3.1-27.5c0,0,0.4-4.5,1.6-13.2c2.5-18.8,6.5-27.1,8.9-38.2
		c3.9-18.2-2.2-18.4-0.8-44.2c1.2-21.8,2-35.7,10.7-49.4c11.2-17.5,31.3-28.1,28.2-37.2c-0.4-1.4-1.8-3.6-4.1-9.6
		c-1.8-4.9-2.8-7.3-3-8.7c-1.2-9.9,11.4-14.1,10.6-23.3c-0.6-6.7-7.8-9.5-6.4-12.4c1.4-3,8.8,0.1,16.9-1.8
		c10.3-2.4,12.8-10.6,23.8-21.7c9.3-9.4,20.8-20.9,32.1-19.6c11.2,1.3,18.4,14.8,32.7,41.7c9.1,17.1,8.7,20.6,16.5,31.4
		c6.9,9.4,14.2,19.8,27,26.3c19.3,9.8,28.1-0.6,45.3,9.2c16.2,9.1,11.5,20.1,27,26.3c14.7,5.9,30.2,0.4,35.2,9.3
		c0.6,1,0.3,1,1.6,5.9c0,0,2.9,10.2,7.1,19.3c4.9,10.4,20.4,24.8,39.3,28.9c11.3,2.5,26.6,2,34.3,10.4c1.4,1.5,2.3,2.8,2.3,2.8
		c5.3,7.2,4,12.3,8,18.2c2.4,3.6,4.9,4.8,6.7,6.3c10.9,9.6,7.9,32.9-0.8,48.4c-0.9,1.7-0.6,0.9-11.1,13.8
		c-19.4,23.9-21.4,27.8-22.7,31.6c-0.8,2.5-3.6,11.7,1.1,29c12.9,48,59.5,73.9,53.3,83.8c-1.5,2.4-5.2,2.7-6.7,2.7
		c-8.3,0.6-12.1-8.4-22.7-14.6c-2.6-1.4-11.7-6.4-21.7-5.7c-11.4,0.8-16,8.3-31.2,18.5c-13.9,9.3-17.9,8.5-29.5,15.3
		c-39.6,23.2-59.5,72.8-59.5,72.8l0,0l12.7,33.8l0,0c0,0-21.7-4.1-31.6,5.4c-2.1,2-1.2,2.2-6.6,13.8c-4.8,10.3-7.2,15.5-10.9,20.3
		c-3.8,5-9,8.7-19.4,16.2c-12,8.6-14.1,8.7-20.6,14.3c-2.1,1.8-4.5,4.1-15.2,17.7c-22.6,28.8-22.7,32-29.5,34.4
		c-3.4,1.2-10.3,2.7-14.2,8.6c-0.5,0.8-2.4,3.7-1.5,5.2c2,3,13.5-3.9,16-0.7c1.6,1.9-0.5,7.3-3.9,10.5c-4.5,4.3-8.8,2.4-12.4,6.4
		c-2,2.2-1.8,4.1-2.9,10.4c-1.8,10-2.7,15.1-5.9,19.8c-5.5,8.2-14.8,10.5-15.9,10.8c-3.2,0.8-3.6,0.2-6,0.6
		c-8,1.7-13,10.1-25.3,35.9c-4.7,10.1-7.1,15.1-7.3,15.9c-4.7,19.5,7.2,30,1.5,42.1c-2.1,4.6-8.6,7.9-21.6,14.4
		c-26.4,13.2-35.3,12-44.9,22c-1.8,1.9-3.2,3.8-12.2,26.5c-17.4,43.9-16.7,48.5-24.3,53.9c-12.2,8.7-28.6,7.2-32.4,16.6
		c-0.7,1.8-2,6.1-1.8,11.3c0.1,2.8,0.2,6.2,1.7,6.9c1.9,0.8,4-3,8.4-5.9c6.1-3.9,15.4-5.2,17.9-1.9c1.7,2.2-1.2,7.8-7,18.9
		c-5.4,10.3-7.6,12.1-9.6,13.1c-3.1,1.5-5.3,1.3-8.6,4c-1.1,0.9-4,3.1-5.3,6.6c-2.5,6.6,3.4,10.7,1.9,17.9c-0.3,1.6-0.8,2.1-7,9.8
		c-11.6,14.4-12.8,16.4-14.1,18.6c-4,7.5-1.9,7.7-5.6,13.7c-6,9.7-12.6,10.4-12.4,15.4c0.2,5.8,9.1,6.9,9.6,14.1
		c0.3,4.8-3.3,8.7-4,9.5c-2.9,3.1-5.9,3.8-8.5,4.9c-7.8,3.6-11.4,11.5-14.2,17.6c-2,4.4-3.5,9.8-2.8,29.5c0.7,22.6,3,24.9,2.2,39
		c-0.8,14.5-1.3,23.6-7.9,29c-8.1,6.7-16.8,0.6-24.3,7.7c-7.1,6.7-0.8,13.8-7.4,24.9c-7,11.8-16,7.4-30.7,23.4
		c-3.6,3.9-6,7.5-11.8,11.3c-7,4.7-9.2,3.1-15.4,6.7c-11.6,6.8-9,15.2-20.7,22.4c-8,4.9-10.6,1.7-16.4,6.8
		c-8.3,7.1-4.2,14.4-11.8,21.4c-7.1,6.6-12.7,1.9-23.1,9.5c-4,2.9-3,3.5-11.7,12.3c-8,8-12,12-15.7,12.8
		c-8.2,1.7-15.2-6.6-22.5-12.7c-15.4-12.9-19.1-5.7-62.9-23.4c-18.5-7.5-8.4-4.9-47.1-26.1C232.3,1359.1,224.3,1354.9,223.3,1347.9z
		"/>
</g>
<g id="_x32_0-30">
	<path class="st3" d="M918.6,420.7c-3.9,2.9-12.7,10.2-17.6,23c-2,5.1-5.8,17.7-1.5,32.4c1.7,5.8,5.6,19.1,17.8,25.2
		c13,6.5,26.8,0.6,34.9-2.8c18.6-7.8,27.4-22.7,30.2-27.4c5.2-8.9,11.6-20,8.6-32.1c-4.7-19.1-29.8-30.1-49.3-27.9
		C929.9,412.6,921.5,418.6,918.6,420.7z"/>
	<path class="st3" d="M820.8,74.2c6.1,1.3,5.1,3.9,12.8,6.7c2.7,1,16.4,6,25.1-0.7c6.1-4.8,6.7-13.1,7.1-17.9
		c0.7-8.6-2.3-15.3-8.1-28.3c-5.4-12-8.2-18-12.1-18.8c-8.1-1.7-19,10.8-23.9,20.7c-2,4-3.9,9.7-9.1,18.1c-3.8,6-5.2,7.1-6.2,7.7
		c-6.4,3.7-12.2-1.1-17.8,2.9c-2.9,2-5.1,6-4.1,8.5c1.4,3.4,8.1,3.5,12.5,3.7C809.3,77.1,812.4,72.5,820.8,74.2z"/>
	<path class="st3" d="M769.7,801.9c-4.4-1-5.9-9.4-6.2-10.4c-1-5.4,0.5-12.7,4.5-14.6c1.1-0.5,1.9-0.4,2.9-1.3
		c2.1-1.8,1.5-4.5,2.3-6.3c2.1-4.7,15.4-6.6,18.9-2C798,775,778.8,804.1,769.7,801.9z"/>
	<path class="st3" d="M526.9,1198.3c-0.3,1-1.4,5.1,0.1,10c0.5,1.6,2.7,9.4,10.3,12c0.5,0.1,7.4,2.4,12.9-1.4
		c7.4-5.1,7.5-17.8,2.3-25.4c-0.6-0.8-6.2-8.6-13.9-7.5C530.2,1187.1,527.1,1197.5,526.9,1198.3z"/>
</g>
</svg>
