<?xml version="1.0" encoding="utf-8"?>
<!-- Generator: Adobe Illustrator 27.8.0, SVG Export Plug-In . SVG Version: 6.00 Build 0)  -->
<svg version="1.1" id="Layer_1" xmlns="http://www.w3.org/2000/svg" xmlns:xlink="http://www.w3.org/1999/xlink" x="0px" y="0px"
	 viewBox="0 0 1195 1432" style="enable-background:new 0 0 1195 1432;" xml:space="preserve">
<style type="text/css">
	.st0{display:none;}
	.st1{display:inline;}
	.st2{fill:#D0FDAD;}
	.st3{fill:#FEFFAE;}
	.st4{fill:#F6CA6B;}
</style>
<g id="Layer_1_00000047781248956606464730000007358633332804328324_">
</g>
<g id="Layer_6" class="st0">
	<g id="_x36_YoUBX.tif" class="st1">
	</g>
</g>
<g id="_x3C_5">
	<path class="st2" d="M207,1355.7c-13.5-6.5-26.1-10.6-26.1-10.6c-21.1-7.1-31.8-10.5-40.6-9.8c-14.1,1.2-15.2,7.4-34.3,9.2
		c-3,0.3-21.3,2-23.5-3.8c-0.9-2.6,2.1-4.8,3.2-8.3c2-5.7-0.4-15.4-20.2-33.3c4.4-0.7,10.8-2,18.2-4.2c13.8-4.1,21.3-6.2,24-12.3
		c2.7-6.2-1.2-10.1-0.6-17c0.7-7.3,6.7-16.9,29.6-26.9c-1.2-6.1-1.8-15,2.9-22.4c13.8-21.2,61.4-11.7,62.5-18.9
		c1-6.4-36.1-13.1-36.7-27.7c-0.2-5.8,5.6-6.8,14.1-21.4c8.2-14.1,6-18.7,11.9-23.2c7.5-5.6,15.1-1.5,35.1-0.3
		c23.2,1.4,42.6-2.3,42.7-5c0.2-3.3-29.7-3.3-32.5-15c-1-4.3,2.1-8.6,5.8-13.6c9.2-12.5,21.9-17.4,24.4-18.4
		c18.9-7.1,25.2,1.7,41.6-5.9c10.1-4.7,8.1-8,19.8-13.9c18.2-9.1,26.4-2.5,33.2-10.1c9.7-11-1.8-30.9,8.5-38
		c1.2-0.8,4.1-1.7,9.9-1.9c20.4-1,27.3-0.4,30.7-4.9c1.2-1.7,1.6-3.4,3.6-4.4c2.2-1.1,3.8-0.1,9.1,0.2c3.8,0.1,5.7,0.3,7-0.7
		c2.5-1.8,2.2-6.1,2-11.2c-0.3-4.7-0.5-8.8-3.2-12.8c-1.5-2.2-2.9-3.1-4.6-6.6c-1.2-2.4-2.1-4.1-1.6-5.9c0.6-2.2,2.9-3.3,5.6-4.5
		c5-2.4,6.1-1,8.8-2.8c3.7-2.6,4.5-7.4,5-10.5c0.4-2.9,1-5.9-0.7-8c-1.9-2.2-4.7-0.8-6.3-2.4c-3.2-3.3,1.7-15.8,10.7-25.1
		c2.7-2.8,2.9-2.4,13.1-10.3c9.1-7,13.6-10.5,16.8-13.6c7.3-7,14.6-14,16.8-24.7c0.8-4.1,0.2-4.8,1.3-7.2c4.2-7.9,15.6-4.7,26.2-9.5
		c15.5-7,23.3-28,24.2-42.4c0.9-14.4-5.4-18-1.7-29c4-11.9,12-9.4,18-22.8c3.6-8.1,7.1-23.7,3.6-36.5c-0.6-2.5-0.6-5.1-0.9-10
		c-0.2-3.6-1-14.9-0.4-20.6c1.9-18.1,22.5-19.3,24.7-36.5c1.5-11.3-7-13.6-4.3-24.7c3.4-14,19.6-22,21.9-23.1c8.2-4,10-1.7,15.6-5.5
		c10.3-6.9,16.8-22.6,12-32.3c-4.7-9.6-18.2-8.8-18.4-14.3c-0.3-7.5,24.7-11,25.1-21.4c0.2-3.7-3.1-4.2-4.9-9.6
		c-2.9-8.6,3.1-14.7,10.2-31.1c8.4-19.9,6.1-26.4,13.2-30.4c8.2-4.6,14.7,1.9,20.8-3c9.3-7.4,3.5-29.5,3.2-30.4
		c-3.5-13-11.8-22.5-8.5-26.3c1.4-1.5,3.2-0.6,4.8-2.5c2.7-3.3-1.3-7.9-0.3-14c0.9-5.5,4.8-5.2,9.8-13c5.7-8.8,1.6-10.6,7.3-18.8
		c2.3-3.3,8.2-10.6,9.2-14.4c0.1-0.3,0.3-1.6,1.1-3.2c1-1.9,2.2-2.5,3.9-7.3c3-8.2,1.9-12.6,3.5-27.4c-1.3-3.7-2.7-8.6-3.8-14.2
		c-2.2-11.6,0.1-11.2-2-21.9c-1.3-6.7-3.1-11.2-0.4-15c1.5-2.1,2.5-1.4,3.7-3.4c3.4-5.4-3.8-12.1-0.8-19c1.2-2.5,2.2-1.7,3.6-4.4
		c3.8-7-3-13-0.9-20c2.3-7.7,12.3-6.9,12.9-12.3c0.7-7.1-16.5-11.2-22.6-27c-0.9-2.5-1.3-4.3-0.6-6c2.3-5.2,11.9-1.6,21.5-6
		c9.3-4.2,5.3-9.5,21.6-27.1c3.1-3.3,7.8-8.1,10.6-16.1c1.3-3.6,0.7-3.7,1.8-7.7c4-13.5,12.5-17.3,10.9-23.1
		c-1.3-4.4-7.5-6.2-9.2-6.7c-8.6-2.5-13,3.5-19,0.8c-5.1-2.3-8.7-9.9-6.4-14.5c2.5-5.2,12-5.6,17.8-2.7c4,2.1,3.9,4.7,7.7,7.3
		c7.4,5.1,17.7,2.3,19.7,1.7c10.6-3,12.8-10.3,24.1-21.3c9.5-9.2,21.1-20.6,32.4-19.1c11.2,1.5,18.2,15.1,32.1,42.2
		c8.8,17.3,8.4,20.7,16,31.6c6.7,9.5,13.9,20,26.6,26.6c19.1,10.1,28.1-0.2,45.1,9.8c15.9,9.4,14.5,25.5,26.6,26.6
		c9,0.9,14.6-7.2,25.2-3.9c3.4,1.1,6.4,3,9.5,5.1c5,3.3,9.3,6.3,8.9,9.2c-0.4,3.1-5.5,4.7-7,5.2c1.3,15.1,4.3,18.9,6.8,19.4
		c4.2,0.9,8.4-7,12-5.6c3.9,1.5,2.5,12.5,4.2,12.7c1.4,0.2,2-8.1,5.7-9.1c3-0.8,4.5,4.4,10.1,5.6c5.1,1,6.9-2.8,12.4-1.7
		c4.1,0.7,8.5,3.8,8.7,7.2c0.3,4.1-6,7.1-5.2,8.5c0.7,1.4,7.1-2.5,11,0c3.6,2.2,1.4,7.2,4,10.7c6.2,8.1,28.2-5.3,37.4,2.5
		c2.9,2.4,5.5,7.8,3,20.8c1-0.1,3.2,0,5.2,1.5c2.9,2.3,3.4,6.9,1.9,9.9c-1.3,2.8-3.7,2.7-4.1,4.9c-0.5,2.7,2.3,5.9,5.2,7
		c2,0.8,2.7,0.1,4.1,0.6c4.9,1.7,7.6,15.1,3.4,25.8c-2.8,6.9-7.8,11.2-12.6,15.2c-7.3,6.1-8.4,4.1-12.7,8.7
		c-8.1,8.6-5.6,17.7-13.2,20.3c-3.5,1.2-6.3,0.3-8.8,2.8c-2.9,3.1-0.7,6.5-3.1,10.3c-3.2,5.4-10.2,3.4-14.4,7.4
		c-5.8,5.7-1.5,19.2,0.2,24.1c15,42.3,58.4,74.8,52.1,84.5c-1.5,2.3-5.3,2.6-6.8,2.6c-8.3,0.5-11.9-8.5-22.5-15
		c-2.5-1.5-11.6-6.6-21.7-6c-11.4,0.7-16.1,8-31.5,18c-14,9.1-18,8.2-29.7,14.8c-40,22.6-60.6,72-60.6,72l12.2,34
		c0,0-21.6-4.4-31.7,5c-2.1,2-1.2,2.2-6.8,13.7c-5,10.2-7.4,15.4-11.2,20.1c-3.9,5-9.1,8.6-19.6,15.9c-12.2,8.5-14.3,8.5-20.8,14
		c-2.1,1.8-4.5,4-15.4,17.5c-23,28.5-23.1,31.7-30,33.9c-3.4,1.1-10.3,2.6-14.3,8.4c-0.5,0.8-2.5,3.6-1.5,5.2c2,3,13.5-3.7,16-0.5
		c1.6,2-0.6,7.3-4,10.4c-4.5,4.2-8.8,2.2-12.5,6.2c-2,2.2-1.8,4.1-3.1,10.3c-2,9.9-2.9,15-6.2,19.7c-5.7,8.2-14.9,10.3-16.1,10.5
		c-3.2,0.7-3.6,0.1-6,0.6c-8,1.6-13.1,9.9-25.8,35.6c-4.9,10-7.3,14.9-7.6,15.8c-5,19.5,6.7,30.1,0.9,42.1
		c-2.2,4.5-8.7,7.7-21.8,14.1c-26.6,12.8-35.5,11.5-45.2,21.3c-1.8,1.9-3.3,3.7-12.6,26.3c-18,43.7-17.4,48.2-25.1,53.6
		c-12.4,8.5-28.7,6.8-32.6,16.1c-0.7,1.8-2,6.1-2,11.2c0.1,2.8,0.1,6.2,1.6,6.9c1.9,0.8,4-3,8.5-5.8c6.2-3.8,15.5-5,17.9-1.7
		c1.7,2.2-1.3,7.8-7.3,18.8c-5.6,10.3-7.8,12-9.8,13c-3.1,1.5-5.3,1.2-8.7,3.8c-1.1,0.9-4,3.1-5.4,6.5c-2.6,6.6,3.2,10.7,1.7,17.9
		c-0.3,1.6-0.8,2.1-7.1,9.7c-11.8,14.3-13,16.2-14.3,18.4c-4.1,7.4-2,7.7-5.8,13.6c-6.1,9.6-12.7,10.2-12.6,15.2
		c0.1,5.8,9,7,9.4,14.2c0.2,4.8-3.4,8.7-4.1,9.4c-2.9,3.1-6,3.7-8.6,4.8c-7.8,3.4-11.6,11.3-14.4,17.4c-2.1,4.4-3.6,9.8-3.3,29.4
		c0.4,22.4,1.6,25,1.6,39c0,30.8-5.6,36.3-7.5,37.9c-5.6,4.7-12.5,2.4-16.3,8.6c-1.4,2.3-1.7,4.6-1.6,9.7c0.1,18.8,3.8,21.9,1.6,28
		c-2.5,7.2-8.3,4.3-19.7,14.9c-10.4,9.6-7.5,13.7-18.9,23.9c-5,4.5-8.4,6.2-12.9,12.3c-2.8,3.7-7.4,10-5.6,15.6c1,3.1,3,2.9,3.5,5.7
		c0.8,4.2-3.6,6.8-9.6,15s-5,10.1-8.8,12.9c-2.8,2.1-8,4.4-17.8,2.7c-2.1-1.7-5.3-3.8-9.5-5.1c-8.3-2.5-13.9,0.3-26.9,2.5
		c-11.8,2-9.6,0.1-22.9,2.1c-16.7,2.6-19.9,5.6-26.3,3c-6.8-2.7-5.5-6.5-14.1-10.7c-7.6-3.8-10.6-0.9-16.6-5.5
		c-3-2.3-2.7-3.5-8.5-8.6c-6-5.4-8.2-5.8-8.9-5.8c-4.8-0.6-7.2,3.4-9.9,1.9c-2.4-1.3-1.1-4.9-3.7-7.7c-1.7-1.7-4-2.2-10.2-2.1
		c-13.6,0.5-18.5,3.8-22,1.1c-2.6-2.2-0.7-4.8-2.8-8.8c-4.3-8.1-16-5.2-33.8-12.4C218.1,1362.8,220.3,1362.1,207,1355.7z"/>
</g>
<g id="_x35_-10">
	<path class="st3" d="M1083.7,425.5c1.9,1.2,3.7,2.7,10,10.1c7.3,8.7,13.1,15.3,12.1,16.4c-1.5,1.6-15.6-13.9-25-9.7
		c-4,1.8-2.9,5.1-7.8,8.3c-7.7,5-14.1-0.7-22.8,3.1c-6.5,2.8-6.4,7.5-12.7,14.2c-8.3,8.8-15.3,7.9-26.9,13.6
		c-28.7,14.2-43.3,48.9-51,67l0,0c-0.7,3.1-1.6,9.5,0.6,17c2.9,9.6,9.1,15.1,11.6,17c0,0-21.6-4.4-31.7,5c-1.6,1.5-1.5,2-3.3,6.3
		c-0.1,0.2-1.2,2.6-3.4,7.4c-1.6,3.4-5.9,10.6-13.4,18.3c-11.3,11.7-31.1,26-35.1,22.4c-3.3-3,7.7-15.1,3-21.4
		c-3.3-4.4-13.2-4.6-19.1-0.2c-4.3,3.2-4,7-8.9,22.9c-2.2,7.1-4.4,14.2-8,21.8c-4.8,10.2-10.2,17.6-12.2,20.2
		c-5.3,6.9-9.4,13.2-17.7,25.8c-0.7,1.1-2.5,3.7-1.5,5.2c2,3,13.5-3.7,16-0.5c1.6,2-0.6,7.3-4,10.4c-4.5,4.2-8.8,2.2-12.5,6.2
		c-3.6,3.8-0.5,7.5-3.1,10.3c-5.5,5.9-21-7.3-34.2-0.8c-7,3.4-9.9,10.6-10,11c-2.8,7.1,1.5,9.8-0.4,17.1
		c-2.5,9.4-10.6,8.8-14.3,19.4c-1.9,5.4,0,6.3-1.6,15.2c-1.4,7.8-3.3,10.5-6.3,18.7c-5.5,15.2-3.2,18.4-9.6,37.1
		c-3.1,9.1-5,12.1-7.7,14.8c-5.3,5.2-14.8,9.6-19.4,6.8c-8.3-4.8,4.4-28.2,6.5-59.9c2.6-40.7-12.5-94.3-41.3-119.7
		c-3.9-3.4-12.8-10.6-19.3-23.3c-2.5-5-5.9-13.2-7.3-35.5c-1.7-25.3,1.1-43.5,6.6-80c0.9-5.6,2-12.9,6-21.7
		c3.1-6.8,4.7-7.5,7.8-13.8c6.4-13.5,1.7-16.3,6.6-25.7c6.1-11.6,14.1-8.5,22.9-23.2c2.2-3.6,3.4-6.6,7.1-9.7
		c5.6-4.6,10.4-4.1,15.5-6.5c11.1-5.2,14.6-19.7,15.1-21.5c2.8-11.7-3.3-16-10.3-45.2c-2-8.6-3.4-14.4-4.1-22.7
		c-0.4-4.5-1.3-17.6,1.8-35.2c4-22.4,6.9-38.1,19.5-48.1c7.8-6.2,11.8-4.4,20.9-13c9.2-8.8,10.2-15.8,16.5-16.6
		c4.8-0.6,9.2,3.1,18,10.4c7.8,6.6,12,11.4,14.3,13.7c10.1,9.8,22.8,7.4,54.1,9c29.6,1.6,44.7,2.4,60.1,9.4
		c10.3,4.7,17.3,10.5,31.2,22.2c9.2,7.7,26.7,22.5,43.5,46.2c12.6,17.7,10,19.6,18.6,27.4c5.5,5,22.6,20.5,43.2,22.1
		C1070.7,421.3,1077.2,421.4,1083.7,425.5z"/>
	<path class="st3" d="M447.2,1245.3c-7,8.6-10.7,15.6-13,22.3c-2.5,7.6-6.9,20.5-0.3,29.2c5,6.6,13.8,7.3,15.8,7.6
		c4.7,0.5,12-0.1,41.1-21.9c14.9-11.1,17-13.9,18.5-16.8c4.8-8.7,6.7-20.9,2-32.3c-1.4-3.5-6.3-15.4-16.8-18.5
		C476.8,1209.4,457.4,1233.1,447.2,1245.3z"/>
	<path class="st3" d="M372.6,1349.7c-3.9-0.5-12-1.7-19.8,2.9c-1.8,1.1-10.7,6.2-11.6,15.1c-1.3,12.2,13.2,20.6,15.1,21.7
		c1,0.6,14,7.8,28.3,2.4c4-1.5,11.5-4.4,14-11.4c3.6-10.2-6.1-22.7-15.6-27.7C378.9,1350.7,375,1350,372.6,1349.7z"/>
	<path class="st3" d="M569.5,1145.5c2.1,2.5,7.9,2.6,11,0c4.2-3.5,3.2-10.9,0.6-15.1c-2.1-3.4-4.2-2.8-5.5-5.5
		c-1.1-2.2-1.7-6.4,8.1-20.8c6.3-9.4,12.4-16.1,13.4-17.3c10.7-11.7,13.7-12.2,16.3-18.6c3.2-7.7,3.4-18.8-1-21
		c-6.6-3.4-27.9,12.4-28.5,27.8c-0.1,3.1,0.5,9.4-3,11.3c-2,1.2-3.6-0.3-6,0.6c-3.4,1.2-4.3,5.7-6.6,15.7
		c-4.2,18.4-5.1,19.8-3.8,23.5c1.4,4.1,3.4,5.5,4,10.7C569.2,1141.4,567.8,1143.6,569.5,1145.5z"/>
	<path class="st3" d="M618.4,1035.5c-1.3-1.9,0.3-4.8,5.8-13.6c12.2-19.4,14.2-19.7,15.3-19.5c3.2,0.7,4.1,8,4.1,11.7
		c0,9.6-6.1,19.9-15,22.5C625.5,1037.4,620.1,1037.9,618.4,1035.5z"/>
	<path class="st3" d="M647.2,977.6c3.4,4.8,19.4,4.4,27.5-6.6c7.9-10.8,4-26.2-1.6-28C664.1,940,641.8,969.7,647.2,977.6z"/>
</g>
<g id="_x32_0-30">
	<path class="st4" d="M1083.7,425.5c1.9,1.2,3.7,2.7,10,10.1c7.3,8.7,13.1,15.3,12.1,16.4c-1.5,1.6-15.6-13.9-25-9.7
		c-4,1.8-2.9,5.1-7.8,8.3c-7.7,5-14.1-0.7-22.8,3.1c-6.5,2.8-6.4,7.5-12.7,14.2c-8.3,8.8-15.3,7.9-26.9,13.6
		c-28.7,14.2-43.3,48.9-51,67l0,0c-0.7,3.1-1.6,9.5,0.6,17c2.9,9.6,9.1,15.1,11.6,17c0,0-21.6-4.4-31.7,5c-1.6,1.5-1.5,2-3.3,6.3
		c-0.1,0.2-1.2,2.6-3.4,7.4c-1.6,3.4-5.9,10.6-13.4,18.3c-13,13.5-20,8.3-35.1,22.4c-4.9,4.6-9.3,8.7-13.6,15.3
		c-3.5,5.4-4.3,8.3-8.8,12.9c-4.3,4.3-6,4.1-8.3,7.8c-3.3,5.4-1.8,9.6-4.9,11.5c-2.5,1.5-4.1-0.6-8.1-0.3c-6.6,0.5-10.7,7.6-19,21.9
		c-1.2,2.1-2.2,4-1.5,5.2c2,3,13.5-3.7,16-0.5c1.6,2-0.6,7.3-4,10.4c-4.4,4.1-7.4,2.4-12.5,6.2c-7.2,5.5-8.5,15.2-8.6,15.9
		c-0.7,6.1,1.8,7.5,0.1,12c-1.5,4.2-5.5,8.4-10.2,9c-6.4,0.9-9-5.6-13.5-4.8c-5.6,1-6,11.8-12.2,30.3c-2,6-5.4,14.1-12.2,30.3
		c-6.4,15.3-9,20.4-7.4,27.8c1.8,8.2,7,10.6,5.4,14.6c-2.1,5.2-11.8,2.6-28.4,7.7c-13.4,4.1-16.3,8.8-19.4,6.8
		c-8.3-4.8,4.4-28.2,6.5-59.9c2.6-40.7-12.5-94.3-41.3-119.7c-3.9-3.4-12.8-10.6-19.3-23.3c-2.5-5-5.9-13.2-7.3-35.5
		c-1.7-25.3,1.1-43.5,6.6-80c0.9-5.6,2-12.9,6-21.7c3.1-6.8,4.7-7.5,7.8-13.8c6.4-13.5,1.7-16.3,6.6-25.7
		c6.1-11.6,14.1-8.5,22.9-23.2c2.2-3.6,3.4-6.6,7.1-9.7c5.6-4.6,10.4-4.1,15.5-6.5c11.1-5.2,14.6-19.7,15.1-21.5
		c2.8-11.7-3.3-16-10.3-45.2c-2-8.6-3.4-14.4-4.1-22.7c-0.4-4.5-1.3-17.6,1.8-35.2c4-22.4,6.9-38.1,19.5-48.1
		c7.8-6.2,11.8-4.4,20.9-13c9.2-8.8,10.2-15.8,16.5-16.6c4.8-0.6,9.2,3.1,18,10.4c7.8,6.6,12,11.4,14.3,13.7
		c10.1,9.8,22.8,7.4,54.1,9c29.6,1.6,44.7,2.4,60.1,9.4c10.3,4.7,17.3,10.5,31.2,22.2c9.2,7.7,26.7,22.5,43.5,46.2
		c12.6,17.7,10,19.6,18.6,27.4c5.5,5,22.6,20.5,43.2,22.1C1070.7,421.3,1077.2,421.4,1083.7,425.5z"/>
</g>
</svg>
