<?xml version="1.0" encoding="utf-8"?>
<!-- Generator: Adobe Illustrator 27.8.0, SVG Export Plug-In . SVG Version: 6.00 Build 0)  -->
<svg version="1.1" id="Layer_1" xmlns="http://www.w3.org/2000/svg" xmlns:xlink="http://www.w3.org/1999/xlink" x="0px" y="0px"
	 viewBox="0 0 1195 1450.4" style="enable-background:new 0 0 1195 1450.4;" xml:space="preserve">
<style type="text/css">
	.st0{display:none;}
	.st1{display:inline;}
	.st2{fill:#156550;}
	.st3{fill:#009688;}
</style>
<g id="Layer_1_00000016782998557763716800000007358221113194283660_">
</g>
<g id="Layer_6" class="st0">
	<g id="_x36_YoUBX.tif" class="st1">
		
			<image style="overflow:visible;enable-background:new    ;" width="985" height="1273" id="Layer_0" xlink:href="9F4FD862B3D66F42.png"  transform="matrix(1.4988 0 0 1.4988 -175.0209 -83.7044)">
		</image>
	</g>
</g>
<g>
	<g id="_x3C_5">
		<path class="st2" d="M239.3,1371.5c-13.6-6.1-26.4-9.8-26.4-9.8c-21.3-6.4-32.1-9.5-40.9-8.6c-14.1,1.6-14.9,7.9-34,10.2
			c-3,0.4-21.2,2.6-23.6-3.1c-1-2.6,1.9-4.9,3-8.4c1.8-5.8-0.9-15.4-21.2-32.7c4.3-0.8,10.7-2.3,18.1-4.7c13.7-4.5,21.1-6.8,23.6-13
			c2.6-6.3-1.5-10.1-1.1-17c0.5-7.3,6.2-17.1,28.8-27.7c-1.4-6.1-2.2-14.9,2.3-22.4c13.2-21.6,61-13.5,61.9-20.7
			c0.8-6.4-36.4-12-37.5-26.6c-0.4-5.8,5.4-7,13.4-21.8c7.8-14.4,5.4-18.9,11.2-23.6c7.3-5.8,15.1-2,35.1-1.3
			c23.3,0.8,42.5-3.5,42.6-6.3c0.1-3.3-29.8-2.5-33-14.1c-1.1-4.3,1.8-8.7,5.4-13.8c8.8-12.8,21.3-18.1,23.8-19.1
			c18.7-7.7,25.2,0.9,41.4-7.1c10-5,7.9-8.2,19.4-14.5c17.9-9.7,26.3-3.2,32.9-11.1c9.4-11.2-2.7-30.8,7.4-38.2
			c1.2-0.9,4-1.8,9.8-2.2c20.4-1.6,27.3-1.3,30.5-5.8c1.2-1.8,1.5-3.4,3.5-4.5c2.2-1.2,3.8-0.2,9.1-0.1c3.8,0,5.8,0.1,6.9-0.9
			c2.5-1.9,2.1-6.2,1.6-11.3c-0.5-4.7-0.8-8.8-3.6-12.7c-1.6-2.1-3-3.1-4.8-6.5c-1.3-2.4-2.2-4.1-1.7-5.8c0.5-2.2,2.8-3.4,5.5-4.7
			c4.9-2.5,6.1-1.2,8.7-3.1c3.6-2.7,4.3-7.5,4.7-10.7c0.4-2.9,0.8-5.9-1-7.9c-2-2.2-4.7-0.6-6.3-2.2c-3.3-3.2,1.3-15.9,10-25.4
			c2.6-2.8,2.8-2.5,12.8-10.6c8.9-7.2,13.3-10.9,16.4-14.1c7.1-7.2,14.1-14.4,16-25.2c0.7-4.1,0-4.8,1.1-7.2
			c3.9-8,15.5-5.1,25.9-10.3c15.3-7.4,22.5-28.7,22.9-43.1c0.4-14.5-5.9-17.8-2.6-28.9c3.7-12,11.7-9.7,17.3-23.3
			c3.3-8.2,6.4-23.9,2.5-36.6c-0.7-2.4-0.7-5-1.2-9.9c-0.3-3.6-1.4-14.8-1-20.5c1.4-18.1,21.9-19.9,23.6-37.2
			c1.1-11.3-7.4-13.4-5.1-24.6c3-14.1,19-22.6,21.2-23.8c8-4.2,9.9-2,15.4-5.9c10.1-7.2,16.1-23,11.1-32.6
			c-5-9.5-18.5-8.3-18.8-13.8c-0.5-7.5,24.3-11.8,24.5-22.2c0-3.7-3.2-4.1-5.2-9.4c-3.2-8.5,2.7-14.7,9.2-31.4
			c7.8-20.1,5.3-26.5,12.3-30.7c8.1-4.8,14.8,1.5,20.7-3.6c9-7.7,2.6-29.5,2.3-30.5c-3.9-12.9-12.5-22.1-9.3-26.1
			c1.3-1.6,3.1-0.7,4.7-2.6c2.6-3.3-1.6-7.9-0.7-14c0.7-5.5,4.7-5.3,9.4-13.3c5.4-8.9,1.3-10.6,6.7-19c2.2-3.4,7.9-10.9,8.8-14.7
			c0.1-0.3,0.3-1.6,1-3.2c1-1.9,2.1-2.6,3.7-7.4c2.8-8.3,1.6-12.7,2.6-27.5c-1.5-3.6-3-8.5-4.3-14.1c-2.5-11.6-0.3-11.2-2.7-21.8
			c-1.5-6.7-3.4-11.1-0.8-15c1.4-2.2,2.4-1.5,3.6-3.5c3.2-5.5-4.2-12-1.3-19c1.1-2.6,2.1-1.8,3.5-4.5c3.6-7.1-3.4-12.9-1.5-20
			c2.1-7.8,12.1-7.2,12.5-12.6c0.5-7.1-16.8-10.7-23.4-26.3c-1-2.5-1.4-4.3-0.7-6c2.2-5.3,11.8-2,21.3-6.7c9.1-4.5,5-9.7,20.8-27.8
			c3-3.4,7.5-8.3,10.1-16.4c1.2-3.7,0.6-3.7,1.6-7.7c3.6-13.6,12-17.7,10.2-23.4c-1.4-4.4-7.7-6-9.4-6.4c-8.6-2.3-12.9,3.9-19,1.3
			c-5.2-2.2-9-9.7-6.8-14.3c2.4-5.2,11.9-6,17.7-3.2c4.1,2,4,4.5,7.9,7.1c7.6,4.9,17.7,1.7,19.8,1.1c10.5-3.3,12.5-10.7,23.5-22
			c9.2-9.5,20.5-21.2,31.8-20c11.2,1.1,18.6,14.5,33.3,41.2c9.4,17,9,20.5,16.9,31.2c7,9.3,14.5,19.6,27.4,25.8
			c19.4,9.5,28.1-1.1,45.4,8.5c16.2,8.9,15.3,25,27.4,25.8c9,0.6,14.4-7.6,25.1-4.6c3.4,1,6.5,2.8,9.7,4.9c5.1,3.2,9.5,6,9.2,8.9
			c-0.3,3.1-5.3,4.9-6.9,5.4c1.8,15.1,4.8,18.7,7.4,19.2c4.2,0.8,8.2-7.3,11.9-6c3.9,1.4,2.8,12.4,4.6,12.5c1.4,0.1,1.7-8.2,5.4-9.2
			c3-0.9,4.7,4.3,10.2,5.3c5.1,0.9,6.8-3,12.3-2c4.1,0.6,8.6,3.6,8.9,7c0.4,4.1-5.8,7.3-5,8.7s7-2.7,11-0.4
			c3.7,2.1,1.6,7.2,4.3,10.5c6.4,7.9,28.1-6.1,37.5,1.4c3,2.3,5.7,7.7,3.6,20.7c1-0.1,3.2-0.1,5.2,1.4c3,2.2,3.6,6.8,2.2,9.8
			c-1.3,2.9-3.6,2.8-3.9,5c-0.4,2.7,2.4,5.8,5.4,6.9c2,0.8,2.7,0.1,4.1,0.5c4.9,1.5,8.1,14.8,4.2,25.7c-2.6,7-7.5,11.4-12.2,15.6
			c-7.1,6.3-8.2,4.3-12.5,9.1c-7.9,8.8-5,17.9-12.6,20.7c-3.5,1.3-6.3,0.5-8.7,3.1c-2.8,3.2-0.5,6.5-2.7,10.4
			c-3,5.5-10.1,3.7-14.2,7.8c-5.6,5.8-0.9,19.3,1,24.1c16.3,41.8,60.6,73,54.6,82.9c-1.4,2.4-5.2,2.8-6.7,2.8
			c-8.3,0.7-12.2-8.2-22.9-14.3c-2.6-1.4-11.7-6.2-21.8-5.4c-11.4,1-15.9,8.5-30.9,18.9c-13.7,9.6-17.8,8.7-29.3,15.7
			c-39.3,23.8-58.4,73.7-58.4,73.7l13.2,33.6c0,0-21.7-3.8-31.5,5.9c-2.1,2.1-1.1,2.3-6.3,13.9c-4.7,10.4-6.9,15.6-10.6,20.5
			c-3.7,5.1-8.9,8.9-19.1,16.5c-11.9,8.8-14,8.9-20.4,14.6c-2.1,1.9-4.4,4.2-14.9,18c-22.2,29.1-22.2,32.4-28.9,34.8
			c-3.4,1.2-10.2,2.9-14,8.8c-0.5,0.8-2.4,3.7-1.4,5.2c2.1,3,13.4-4.1,16-1c1.6,1.9-0.4,7.3-3.7,10.5c-4.4,4.4-8.8,2.5-12.3,6.6
			c-1.9,2.3-1.7,4.1-2.7,10.4c-1.7,10-2.5,15.1-5.6,19.8c-5.4,8.3-14.6,10.8-15.8,11c-3.2,0.8-3.6,0.2-6,0.7
			c-7.9,1.8-12.8,10.3-24.7,36.3c-4.6,10.1-6.9,15.2-7.1,16c-4.4,19.6,7.6,29.9,2.2,42.1c-2.1,4.6-8.5,8-21.4,14.7
			c-26.2,13.6-35.1,12.5-44.6,22.6c-1.8,1.9-3.2,3.8-11.8,26.7c-16.7,44.2-15.9,48.7-23.5,54.3c-12.1,8.9-28.5,7.6-32.1,17.1
			c-0.7,1.8-1.9,6.2-1.6,11.3c0.1,2.8,0.3,6.2,1.9,6.8c1.9,0.8,3.9-3.1,8.3-6.1c6.1-4,15.4-5.4,17.9-2.2c1.8,2.2-1.1,7.8-6.7,19
			c-5.3,10.4-7.5,12.2-9.4,13.3c-3,1.6-5.3,1.4-8.6,4.1c-1.1,0.9-3.9,3.2-5.2,6.7c-2.4,6.6,3.5,10.6,2.2,17.9
			c-0.3,1.6-0.7,2.1-6.8,9.9c-11.4,14.6-12.6,16.6-13.8,18.8c-3.9,7.5-1.8,7.8-5.4,13.8c-5.8,9.8-12.4,10.6-12.2,15.6
			c0.3,5.8,9.2,6.7,9.8,13.9c0.4,4.8-3.2,8.8-3.9,9.5c-2.8,3.2-5.9,3.8-8.4,5.1c-7.7,3.7-11.3,11.7-13.9,17.8
			c-2,4.5-3.3,9.9-2.4,29.5c1,22.3,2.4,24.9,2.8,39c0.9,30.8-4.6,36.4-6.4,38.1c-5.4,4.9-12.5,2.7-16,9c-1.3,2.4-1.5,4.6-1.3,9.7
			c0.7,18.8,4.4,21.8,2.4,27.9c-2.3,7.2-8.2,4.5-19.2,15.5c-10.1,9.9-7.1,13.9-18.1,24.4c-4.9,4.6-8.2,6.5-12.5,12.6
			c-2.7,3.8-7.1,10.2-5.1,15.7c1.1,3.1,3.1,2.8,3.7,5.6c0.9,4.2-3.4,6.9-9.2,15.2c-5.8,8.4-4.7,10.3-8.5,13.1
			c-2.8,2.2-7.9,4.6-17.7,3.2c-2.1-1.7-5.4-3.7-9.7-4.9c-8.3-2.3-13.9,0.7-26.8,3.3c-11.7,2.4-9.6,0.4-22.8,2.8
			c-16.6,3.1-19.7,6.2-26.2,3.7c-6.9-2.5-5.7-6.3-14.4-10.3c-7.7-3.6-10.7-0.6-16.7-5c-3.1-2.2-2.8-3.4-8.8-8.4
			c-6.2-5.2-8.3-5.5-9-5.5c-4.8-0.4-7.1,3.6-9.8,2.2c-2.5-1.2-1.2-4.9-4-7.6c-1.7-1.6-4.1-2.1-10.3-1.8c-13.6,0.9-18.4,4.4-22,1.7
			c-2.7-2.1-0.9-4.7-3.1-8.7c-4.5-8-16.1-4.8-34.2-11.4C250.7,1378.2,252.9,1377.4,239.3,1371.5z"/>
	</g>
	<g id="_x35_-10">
		<path class="st3" d="M1088.1,415.7c2,1.2,3.7,2.6,10.3,9.8c7.6,8.4,13.5,15,12.6,16.1c-1.4,1.7-16-13.4-25.3-9
			c-3.9,1.9-2.8,5.2-7.5,8.5c-7.5,5.3-14.1-0.3-22.7,3.8c-6.4,3-6.2,7.7-12.3,14.6c-8.1,9.1-15.1,8.3-26.4,14.4
			c-28.3,15.1-41.9,50.2-49,68.5l0,0c-0.6,3.1-1.3,9.5,1.1,17c3.2,9.5,9.6,14.8,12.1,16.6c0,0-21.7-3.8-31.5,5.9
			c-1.5,1.5-1.5,2-3.1,6.4c-0.1,0.2-1.1,2.7-3.2,7.4c-1.5,3.4-5.6,10.8-12.8,18.7c-10.9,12-30.3,26.9-34.4,23.4
			c-3.4-2.9,7.3-15.3,2.4-21.5c-3.5-4.3-13.3-4.2-19.1,0.3c-4.2,3.3-3.8,7.1-8.2,23.2c-2,7.2-4,14.3-7.3,22.1
			c-4.5,10.3-9.7,17.9-11.6,20.6c-5.1,7.1-9,13.5-16.9,26.3c-0.7,1.1-2.3,3.8-1.4,5.2c2.1,3,13.4-4.1,16-1c1.6,1.9-0.4,7.3-3.7,10.5
			c-4.4,4.4-8.8,2.5-12.3,6.6c-3.4,4-0.3,7.5-2.7,10.4c-5.3,6.1-21.2-6.7-34.2,0.2c-6.9,3.6-9.5,10.9-9.7,11.3
			c-2.5,7.2,1.8,9.8,0.1,17.1c-2.3,9.4-10.4,9.1-13.7,19.8c-1.7,5.5,0.2,6.3-1.1,15.3c-1.2,7.8-3,10.6-5.7,18.8
			c-5.1,15.3-2.7,18.5-8.5,37.3c-2.8,9.2-4.6,12.3-7.2,15c-5.2,5.4-14.5,10.1-19.2,7.4c-8.4-4.6,3.6-28.3,4.7-60
			c1.4-40.8-15.3-93.9-44.9-118.4c-4-3.3-13.1-10.2-19.9-22.7c-2.6-4.9-6.2-13-8.4-35.2c-2.4-25.2-0.2-43.5,4.2-80.1
			c0.7-5.6,1.6-13,5.4-21.8c2.9-6.9,4.5-7.6,7.3-14c6-13.6,1.2-16.4,5.9-25.9c5.8-11.8,13.8-9,22.2-23.9c2.1-3.7,3.2-6.7,6.8-9.9
			c5.5-4.8,10.2-4.4,15.3-6.9c10.9-5.5,14-20.2,14.4-21.9c2.5-11.8-3.8-15.9-11.6-44.9c-2.3-8.5-3.8-14.3-4.8-22.6
			c-0.6-4.5-1.9-17.5,0.8-35.3c3.4-22.5,5.7-38.3,18.1-48.7c7.6-6.5,11.7-4.8,20.5-13.6c9-9.1,9.7-16.1,16-17.1
			c4.7-0.8,9.3,2.8,18.3,9.8c8,6.4,12.4,11.1,14.7,13.3c10.3,9.5,23,6.7,54.3,7.4c29.6,0.7,44.8,1.1,60.4,7.7
			c10.4,4.4,17.6,10,31.8,21.3c9.4,7.4,27.4,21.7,44.8,44.8c13.1,17.3,10.5,19.3,19.4,26.8c5.6,4.8,23.2,19.8,43.9,20.8
			C1075,411.9,1081.4,411.8,1088.1,415.7z"/>
		<path class="st3" d="M476.2,1254c-6.8,8.8-10.2,15.9-12.3,22.7c-2.3,7.6-6.3,20.7,0.6,29.1c5.2,6.4,14.1,6.9,16,7.1
			c4.7,0.3,12-0.5,40.5-23.1c14.6-11.6,16.6-14.4,18-17.3c4.6-8.8,6.1-21.1,1-32.4c-1.5-3.4-6.7-15.2-17.3-18
			C504.7,1217.2,486,1241.5,476.2,1254z"/>
		<path class="st3" d="M404.8,1360.6c-3.9-0.4-12.1-1.3-19.7,3.4c-1.8,1.1-10.5,6.5-11.2,15.5c-0.9,12.2,13.8,20.2,15.7,21.2
			c1,0.6,14.2,7.4,28.4,1.5c3.9-1.6,11.4-4.7,13.7-11.8c3.3-10.3-6.8-22.5-16.5-27.2C411,1361.3,407.1,1360.8,404.8,1360.6z"/>
		<path class="st3" d="M595.5,1150.6c2.2,2.4,7.9,2.3,11-0.4c4.1-3.6,2.9-11,0.1-15.1c-2.2-3.4-4.3-2.7-5.7-5.3
			c-1.2-2.2-1.9-6.3,7.5-21.1c6.1-9.6,11.9-16.5,12.9-17.7c10.3-12.1,13.4-12.6,15.8-19.1c3-7.8,2.8-18.9-1.6-21
			c-6.7-3.2-27.5,13.3-27.7,28.6c0,3.1,0.8,9.4-2.6,11.4c-2,1.2-3.6-0.2-6,0.7c-3.4,1.3-4.1,5.8-6.1,15.9
			c-3.7,18.5-4.5,19.9-3.1,23.6c1.5,4,3.6,5.4,4.3,10.5C595,1146.5,593.7,1148.7,595.5,1150.6z"/>
		<path class="st3" d="M641.1,1039.2c-1.3-1.8,0.1-4.8,5.4-13.8c11.7-19.8,13.6-20.1,14.7-19.9c3.2,0.6,4.3,7.8,4.4,11.5
			c0.3,9.6-5.5,20-14.3,22.9C648.2,1040.9,642.8,1041.6,641.1,1039.2z"/>
		<path class="st3" d="M668.1,980.4c3.5,4.7,19.5,3.8,27.3-7.4c7.6-11,3.2-26.3-2.4-27.9C683.9,942.4,662.5,972.8,668.1,980.4z"/>
	</g>
	<g id="_x32_0-30">
		<path class="st3" d="M1088.1,415.7c2,1.2,3.7,2.6,10.3,9.8c7.6,8.4,13.5,15,12.6,16.1c-1.4,1.7-16-13.4-25.3-9
			c-3.9,1.9-2.8,5.2-7.5,8.5c-7.5,5.3-14.1-0.3-22.7,3.8c-6.4,3-6.2,7.7-12.3,14.6c-8.1,9.1-15.1,8.3-26.4,14.4
			c-28.3,15.1-41.9,50.2-49,68.5l0,0c-0.6,3.1-1.3,9.5,1.1,17c3.2,9.5,9.6,14.8,12.1,16.6c0,0-21.7-3.8-31.5,5.9
			c-1.5,1.5-1.5,2-3.1,6.4c-0.1,0.2-1.1,2.7-3.2,7.4c-1.5,3.4-5.6,10.8-12.8,18.7c-12.6,13.8-19.8,8.9-34.4,23.4
			c-4.8,4.7-9.1,9-13.2,15.7c-3.4,5.5-4.1,8.5-8.5,13.1c-4.2,4.4-5.9,4.3-8.1,8.1c-3.1,5.5-1.5,9.7-4.6,11.7c-2.4,1.6-4.1-0.5-8.1,0
			c-6.6,0.7-10.5,7.9-18.4,22.4c-1.1,2.2-2.1,4.1-1.4,5.2c2.1,3,13.4-4.1,16-1c1.6,1.9-0.4,7.3-3.7,10.5c-4.3,4.3-7.3,2.6-12.3,6.6
			c-7.1,5.7-8.1,15.4-8.1,16.1c-0.6,6.1,2,7.4,0.5,12c-1.4,4.2-5.3,8.5-9.9,9.3c-6.4,1.1-9.1-5.3-13.6-4.4
			c-5.6,1.2-5.7,12-11.3,30.6c-1.9,6.1-5,14.2-11.3,30.6c-6,15.4-8.4,20.7-6.6,28c2,8.1,7.3,10.4,5.8,14.4c-2,5.3-11.7,3-28.2,8.5
			c-13.3,4.5-16,9.2-19.2,7.4c-8.4-4.6,3.6-28.3,4.7-60c1.4-40.8-15.3-93.9-44.9-118.4c-4-3.3-13.1-10.2-19.9-22.7
			c-2.6-4.9-6.2-13-8.4-35.2c-2.4-25.2-0.2-43.5,4.2-80.1c0.7-5.6,1.6-13,5.4-21.8c2.9-6.9,4.5-7.6,7.3-14c6-13.6,1.2-16.4,5.9-25.9
			c5.8-11.8,13.8-9,22.2-23.9c2.1-3.7,3.2-6.7,6.8-9.9c5.5-4.8,10.2-4.4,15.3-6.9c10.9-5.5,14-20.2,14.4-21.9
			c2.5-11.8-3.8-15.9-11.6-44.9c-2.3-8.5-3.8-14.3-4.8-22.6c-0.6-4.5-1.9-17.5,0.8-35.3c3.4-22.5,5.7-38.3,18.1-48.7
			c7.6-6.5,11.7-4.8,20.5-13.6c9-9.1,9.7-16.1,16-17.1c4.7-0.8,9.3,2.8,18.3,9.8c8,6.4,12.4,11.1,14.7,13.3
			c10.3,9.5,23,6.7,54.3,7.4c29.6,0.7,44.8,1.1,60.4,7.7c10.4,4.4,17.6,10,31.8,21.3c9.4,7.4,27.4,21.7,44.8,44.8
			c13.1,17.3,10.5,19.3,19.4,26.8c5.6,4.8,23.2,19.8,43.9,20.8C1075,411.9,1081.4,411.8,1088.1,415.7z"/>
	</g>
</g>
</svg>
