<?xml version="1.0" encoding="utf-8"?>
<!-- Generator: Adobe Illustrator 27.8.0, SVG Export Plug-In . SVG Version: 6.00 Build 0)  -->
<svg version="1.0" xmlns="http://www.w3.org/2000/svg" xmlns:xlink="http://www.w3.org/1999/xlink" x="0px" y="0px"
	 viewBox="0 0 1195 1456" style="enable-background:new 0 0 1195 1456;" xml:space="preserve">
<style type="text/css">
	.st0{fill:#F6C96D;}
	.st1{fill:#F8F4A0;}
	.st2{fill:#156550;}
	.st3{fill:#009688;}
	.st4{fill:#8BC34A;}
</style>
<g id="Layer_1">
</g>
<g id="_x32_0-30">
</g>
<g id="_x3C_5">
</g>
<g id="_x32_0-30_copy">
	<g>
		<path class="st0" d="M914.5,423.1c-3.9,2.9-12.7,10.3-17.5,23.1c-2,5.2-5.8,17.7-1.4,32.4c1.7,5.8,5.7,19.1,17.9,25.2
			c13,6.4,26.8,0.5,34.9-2.9c18.5-7.9,27.4-22.8,30.1-27.5c5.2-9,11.5-20,8.5-32.1c-4.8-19-29.9-30-49.4-27.7
			C925.8,414.9,917.4,421,914.5,423.1z"/>
		<path class="st0" d="M815.3,77c6.1,1.2,5.1,3.8,12.8,6.6c2.8,1,16.4,5.9,25.1-0.8c6.1-4.8,6.7-13.1,7-17.9
			c0.6-8.7-2.3-15.3-8.2-28.3c-5.4-12-8.2-17.9-12.2-18.8c-8.1-1.7-19,10.9-23.8,20.8c-2,4-3.9,9.7-9,18.1c-3.7,6.1-5.1,7.1-6.2,7.7
			c-6.4,3.8-12.1-1-17.8,3c-2.9,2.1-5.1,6-4.1,8.5c1.4,3.4,8.2,3.5,12.5,3.6C803.9,79.9,807,75.3,815.3,77z"/>
		<path class="st1" d="M767.1,804.9c-4.4-1-6-9.4-6.2-10.4c-1-5.4,0.5-12.7,4.4-14.6c1-0.5,1.8-0.4,2.9-1.3c2.1-1.9,1.5-4.5,2.3-6.3
			c2.1-4.7,15.3-6.7,18.9-2.1C795.3,777.9,776.3,807.1,767.1,804.9z"/>
		<path class="st0" d="M525.9,1202.3c-0.3,1-1.3,5.1,0.1,10c0.4,1.5,2.7,9.3,10.4,11.9c0.5,0.2,7.4,2.4,12.9-1.4
			c7.4-5.2,7.5-17.9,2.2-25.4c-0.6-0.9-6.2-8.6-13.9-7.5C529.2,1191.1,526.1,1201.5,525.9,1202.3z"/>
		<path class="st2" d="M219.3,1366.5c-13.5-6.2-26.3-10.1-26.3-10.1c-21.3-6.6-32-9.9-40.8-9c-14.1,1.5-15,7.7-34.1,9.9
			c-3,0.3-21.3,2.4-23.5-3.4c-1-2.6,1.9-4.8,3.1-8.4c1.8-5.7-0.7-15.4-20.8-32.9c4.4-0.8,10.7-2.2,18.1-4.5
			c13.7-4.3,21.2-6.6,23.7-12.7c2.6-6.2-1.5-10.1-0.9-17c0.6-7.3,6.4-17,29.1-27.4c-1.3-6.1-2.1-15,2.5-22.4
			c13.4-21.4,61.1-12.7,62.2-20.1c0.9-6.4-36.3-12.5-37.2-27c-0.4-5.8,5.4-6.9,13.7-21.7c8-14.3,5.6-18.8,11.5-23.4
			c7.4-5.8,15.1-1.8,35.1-0.9c23.2,1,42.5-3.1,42.6-5.8c0.1-3.3-29.8-2.8-32.8-14.4c-1.1-4.3,1.9-8.7,5.5-13.7
			c9-12.6,21.5-17.8,24.1-18.8c18.8-7.4,25.1,1.2,41.5-6.7c10-4.8,7.9-8.2,19.5-14.3c18.1-9.5,26.4-3,33-10.7
			c9.5-11.2-2.3-30.9,7.8-38.1c1.2-0.8,4-1.7,9.8-2.1c20.4-1.3,27.3-1,30.6-5.4c1.3-1.7,1.5-3.4,3.5-4.4c2.2-1.1,3.8-0.1,9.1,0
			c3.8,0.1,5.8,0.1,7-0.8c2.5-1.9,2.2-6.2,1.8-11.3c-0.4-4.7-0.7-8.8-3.4-12.7c-1.5-2.2-2.9-3.1-4.8-6.5c-1.3-2.4-2.1-4-1.7-5.9
			c0.6-2.2,2.8-3.3,5.5-4.6c5-2.4,6.1-1.1,8.7-3c3.7-2.6,4.4-7.5,4.8-10.6c0.4-2.9,0.9-6-0.9-8c-2-2.2-4.7-0.7-6.3-2.3
			c-3.3-3.3,1.5-15.9,10.2-25.3c2.6-2.8,2.9-2.4,12.9-10.5c8.9-7.2,13.4-10.8,16.6-13.9c7.1-7.1,14.3-14.3,16.3-25
			c0.8-4.2,0-4.8,1.2-7.2c4.1-8,15.5-5,26.1-10c15.4-7.2,22.8-28.5,23.4-42.9c0.6-14.5-5.8-17.8-2.2-28.9c3.8-12,11.8-9.6,17.5-23.1
			c3.5-8.2,6.7-23.8,2.9-36.6c-0.7-2.4-0.7-5-1.1-9.9c-0.3-3.6-1.3-14.8-0.8-20.5c1.6-18.1,22.1-19.7,24-36.9
			c1.3-11.3-7.3-13.4-4.8-24.6c3.1-14,19.2-22.4,21.5-23.5c8.1-4.1,9.9-1.9,15.5-5.8c10.2-7.1,16.4-22.9,11.5-32.5
			c-4.9-9.5-18.4-8.5-18.7-14c-0.4-7.5,24.5-11.5,24.7-21.9c0.1-3.8-3.2-4.2-5.1-9.5c-3-8.6,2.9-14.7,9.6-31.3
			c8.1-20,5.6-26.5,12.7-30.6c8.1-4.7,14.7,1.7,20.8-3.3c9.1-7.5,2.9-29.5,2.6-30.5c-3.8-12.9-12.3-22.3-9-26.2
			c1.3-1.5,3.2-0.6,4.7-2.5c2.7-3.3-1.5-7.9-0.6-14c0.8-5.5,4.7-5.2,9.6-13.2c5.5-8.9,1.4-10.6,6.9-18.9c2.2-3.4,8.1-10.8,8.9-14.6
			c0.1-0.4,0.3-1.7,1.1-3.2c1-1.9,2.1-2.6,3.8-7.4c2.9-8.3,1.7-12.6,3-27.5c-1.4-3.7-2.9-8.5-4.1-14.1c-2.4-11.6-0.2-11.2-2.5-21.9
			c-1.4-6.6-3.2-11.2-0.7-15c1.4-2.2,2.5-1.5,3.6-3.4c3.3-5.5-4.1-12.1-1.1-19c1.1-2.6,2.1-1.7,3.5-4.4c3.6-7-3.2-12.9-1.2-20
			c2.2-7.8,12.2-7.1,12.7-12.5c0.6-7.2-16.7-10.9-23.1-26.6c-1-2.5-1.4-4.3-0.7-6c2.2-5.3,11.8-1.9,21.4-6.4
			c9.1-4.3,5.1-9.6,21.1-27.5c3-3.4,7.7-8.2,10.3-16.2c1.2-3.7,0.6-3.7,1.6-7.7c3.7-13.6,12.2-17.6,10.5-23.3
			c-1.3-4.4-7.6-6.1-9.3-6.5c-8.7-2.3-13,3.7-19,1.1c-5.2-2.3-8.8-9.8-6.6-14.3c2.4-5.2,11.9-5.9,17.8-3c4.1,2,4,4.6,7.8,7.2
			c7.5,5,17.8,1.9,19.8,1.3c10.6-3.2,12.6-10.6,23.7-21.8c9.3-9.4,20.7-20.9,32-19.7c11.2,1.3,18.5,14.8,32.8,41.6
			c9.1,17.1,8.8,20.5,16.6,31.3c6.9,9.4,14.3,19.7,27.1,26.1c19.3,9.7,28.1-0.7,45.3,9c16.1,9.1,15,25.2,27.1,26.1
			c9,0.7,14.5-7.5,25.2-4.3c3.5,1,6.5,2.9,9.6,5c5.1,3.3,9.4,6,9.1,9c-0.4,3.1-5.4,4.8-7,5.3c1.6,15.1,4.7,18.8,7.2,19.3
			c4.3,0.8,8.3-7.2,11.9-5.9c3.9,1.4,2.8,12.5,4.4,12.6c1.5,0.1,1.8-8.2,5.5-9.2c3.1-0.8,4.6,4.3,10.2,5.4c5.2,1,6.8-2.8,12.4-1.9
			c4.1,0.7,8.6,3.7,8.8,7.1c0.3,4.1-5.9,7.2-5.1,8.6c0.8,1.4,7-2.6,11-0.2c3.6,2.2,1.5,7.1,4.2,10.6c6.3,8,28.1-5.8,37.4,1.8
			c2.9,2.4,5.6,7.7,3.3,20.8c1-0.1,3.3-0.1,5.2,1.4c3,2.3,3.5,6.9,2.1,9.8c-1.3,2.8-3.6,2.7-4,5c-0.4,2.7,2.4,5.8,5.3,7
			c2,0.8,2.8,0.1,4.1,0.5c4.9,1.5,7.9,14.9,3.9,25.7c-2.6,7-7.6,11.3-12.4,15.5c-7.2,6.3-8.3,4.3-12.6,9c-8,8.7-5.3,17.8-12.8,20.6
			c-3.5,1.3-6.3,0.4-8.7,3c-2.9,3.1-0.6,6.5-2.9,10.4c-3.1,5.5-10.2,3.5-14.2,7.6c-5.7,5.8-1.1,19.2,0.7,24.1
			c15.7,42,59.7,73.7,53.6,83.5c-1.5,2.4-5.2,2.6-6.7,2.8c-8.3,0.6-12.1-8.3-22.8-14.6c-2.5-1.5-11.7-6.4-21.8-5.6
			c-11.4,0.9-16,8.3-31.1,18.6c-13.9,9.4-17.9,8.5-29.5,15.4c-39.6,23.4-59.2,73.1-59.2,73.1c0,0,12.8,33.8,12.8,33.8
			c0,0-21.7-4-31.6,5.6c-2.1,2-1.2,2.2-6.5,13.8c-4.8,10.3-7.2,15.5-10.8,20.3c-3.8,5-9,8.8-19.3,16.3c-12,8.7-14.2,8.8-20.5,14.4
			c-2.1,1.9-4.4,4.1-15.1,17.8c-22.5,28.9-22.6,32.2-29.3,34.5c-3.4,1.2-10.3,2.7-14.1,8.6c-0.5,0.8-2.4,3.7-1.4,5.2
			c2,3,13.4-3.9,16-0.8c1.6,1.9-0.5,7.3-3.9,10.5c-4.5,4.3-8.8,2.4-12.4,6.4c-2,2.3-1.8,4.1-2.9,10.4c-1.8,10-2.7,15.1-5.8,19.8
			c-5.5,8.2-14.7,10.6-15.9,10.8c-3.2,0.8-3.6,0.2-6,0.7c-7.9,1.7-13,10.1-25.1,36c-4.7,10-7.1,15.1-7.3,15.9
			c-4.7,19.5,7.3,29.9,1.7,42.1c-2.1,4.6-8.6,7.9-21.5,14.5c-26.4,13.4-35.2,12.1-44.8,22.1c-1.8,1.9-3.2,3.8-12.1,26.5
			c-17.2,44-16.5,48.6-24.1,54c-12.2,8.7-28.5,7.3-32.3,16.7c-0.7,1.8-1.9,6.2-1.8,11.3c0.1,2.9,0.2,6.2,1.8,6.8
			c1.9,0.8,3.9-3.1,8.4-6c6.1-4,15.4-5.2,17.9-2c1.7,2.2-1.2,7.8-6.9,18.9c-5.4,10.4-7.6,12.1-9.6,13.2c-3,1.6-5.2,1.3-8.6,4
			c-1.1,0.9-4,3.1-5.3,6.6c-2.5,6.6,3.5,10.7,2,17.9c-0.3,1.7-0.8,2.2-6.9,9.8c-11.5,14.4-12.8,16.4-14,18.7
			c-4,7.4-1.8,7.7-5.5,13.7c-6,9.7-12.5,10.5-12.4,15.5c0.2,5.8,9.1,6.8,9.6,14c0.3,4.8-3.3,8.7-4,9.5c-2.8,3.1-5.9,3.8-8.5,5
			c-7.8,3.5-11.4,11.6-14.1,17.7c-2,4.5-3.5,9.8-2.7,29.5c0.8,22.4,2.1,24.9,2.4,39c0.5,30.8-5,36.4-6.8,38
			c-5.5,4.8-12.5,2.6-16.1,8.9c-1.4,2.4-1.6,4.6-1.4,9.7c0.5,18.7,4.2,21.9,2.1,27.9c-2.5,7.2-8.2,4.5-19.4,15.3
			c-10.2,9.8-7.2,13.8-18.4,24.2c-4.9,4.6-8.3,6.4-12.7,12.5c-2.7,3.8-7.2,10.1-5.3,15.7c1.1,3.1,3.1,2.9,3.7,5.6
			c0.9,4.2-3.5,6.9-9.4,15.1c-6,8.3-4.8,10.2-8.6,13c-2.8,2.1-8,4.6-17.8,3c-2.1-1.6-5.3-3.7-9.6-5c-8.3-2.3-13.9,0.6-26.8,3
			c-11.7,2.2-9.6,0.3-22.9,2.6c-16.7,2.9-19.8,5.9-26.3,3.5c-6.9-2.6-5.6-6.4-14.3-10.5c-7.7-3.6-10.7-0.8-16.7-5.2
			c-3.1-2.3-2.7-3.4-8.7-8.5c-6.1-5.3-8.2-5.6-9-5.6c-4.8-0.4-7.2,3.5-9.8,2.1c-2.4-1.3-1.2-4.9-3.9-7.6c-1.7-1.6-4.1-2.2-10.3-1.9
			c-13.6,0.7-18.4,4.2-22,1.5c-2.7-2.1-0.8-4.7-3-8.7c-4.4-8.1-16.1-4.9-34-11.8C230.5,1373.4,232.8,1372.6,219.3,1366.5z"/>
		<path class="st3" d="M1079.2,339.2c-2.7,12.6,3.4,22.2,18.6,49.2c27.6,48.9,31.8,59.8,29.1,62.1c-5.5,4.8-38.2-27.5-51.4-18.4
			c-3.3,2.3-2.9,5.1-7.6,8.4c-7.5,5.2-14.1-0.4-22.7,3.6c-6.4,2.9-6.3,7.7-12.5,14.5c-8.2,9-15.2,8.1-26.6,14.1
			c-28.4,14.8-42.4,49.8-49.7,67.9c0,0,0,0,0,0c-0.6,3.1-1.5,9.5,0.9,17c3,9.5,9.5,14.9,11.9,16.8c0,0-21.7-4-31.6,5.6
			c-1.5,1.5-1.4,2-3.2,6.4c-0.1,0.2-1.1,2.7-3.3,7.4c-1.5,3.4-5.8,10.7-13,18.6c-12.7,13.7-19.8,8.6-34.7,23
			c-4.8,4.7-9.1,8.8-13.3,15.6c-3.4,5.5-4.2,8.4-8.6,13c-4.2,4.4-6,4.2-8.2,8c-3.2,5.5-1.6,9.6-4.7,11.6c-2.5,1.6-4.1-0.5-8.1-0.1
			c-6.6,0.7-10.6,7.9-18.6,22.2c-1.2,2.1-2.2,4.1-1.4,5.2c2,3,13.4-3.9,16-0.8c1.6,1.9-0.5,7.3-3.9,10.5c-4.4,4.2-7.4,2.5-12.4,6.4
			c-7.1,5.6-8.2,15.3-8.3,16c-0.6,6.1,1.9,7.5,0.3,12c-1.4,4.2-5.4,8.4-10,9.2c-6.4,1-9.1-5.4-13.6-4.5c-5.6,1.2-5.8,12-11.7,30.5
			c-1.9,6-5.2,14.2-11.7,30.5c-6.1,15.4-8.7,20.6-6.9,27.9c1.9,8.2,7.2,10.5,5.6,14.5c-2.9,7.4-22.1,7.6-28.3,8.2
			c-56.8,5.9-82.5,188.9-112.3,187.2c-3.6-0.2-4.7-2.9-14.9-16.4c-26.7-35.2-31.8-33.7-50.9-58.7c0,0-41.9-55.1-45.2-106.6
			c-0.5-7.1-1-17.6,4.9-27.7c4.7-8.1,9.2-8.4,16.1-17.9c7.1-9.9,9.5-19.5,11.1-26.4c4.8-19.8-1.5-21.8,3.1-35.6
			c5.8-17.4,16.7-16.7,19.5-32.4c2.1-12-3.8-15.6-1.1-28c2.5-11.9,10.2-19.3,14.4-23.8c14.2-14.9,21.7-30.7,36.4-61.4
			c13.3-27.9,17.9-50.9,32.4-88.2c1-2.5,3.9-9.9,8.9-19.1c5.5-10.1,8.4-15.4,13.8-20.7c7.8-7.7,16.3-10.7,33.3-16.8
			c7.8-2.8,14.1-4.5,21.4-6.4c5.4-1.4,15.3-4.1,25.5-5.9c10.3-1.8,23.9-4.2,41-2.6c7.8,0.7,28.7,2.9,50,15.5
			c10,5.9,10.3,8.3,17.2,10.1c14.6,3.8,31.4-2.4,41.8-12.7c8.4-8.4,11.2-18.1,13.2-25.6c13.4-49.6,19.3-88.3,20.4-95.9
			c7.2-47.4,9.6-56,3.1-61.7c-4.2-3.6-11.8-5.9-58.3,9.6c-54.4,18-70.5,29.8-93.1,22.5c-3.6-1.2-17.1-5.7-26.2-18.2
			c-7.7-10.5-6.4-18.8-11.4-48c-0.9-5-3.4-16.8-8.5-40.3c-8.8-40.6-10.4-42.8-10-53.2c0.5-12.6,1.1-28.4,11.3-42.5
			c6.7-9.3,12.8-11.3,16.7-22c2.8-7.9,0.5-9.7,2.2-25.4c1.4-12.9,2.4-21.8,7.7-30c3.1-4.8,5.7-6.2,21.3-16.5
			C820.4,10,823.5,6.9,829.7,8c7.8,1.3,12.4,8.1,21.6,21.7c13.9,20.5,12,28.2,23,43.7c5.3,7.4,14.9,20.9,31.3,27.7
			c24.5,10.2,40.1-4.7,54.1,7c11.4,9.5,5.2,22.6,17.5,30.2c11.7,7.3,21-2.2,32.8,5.4c9.4,6.1,6.8,14.4,17.3,28.3
			c1.5,2,11.3,14.8,26.5,21.2c25.5,10.8,43.2-5.9,56,5.8c2.4,2.2,2,3,10.3,29c9,28.1,9.3,26.9,9.4,30.1c0.3,14.8-9.3,27.2-28.4,51.5
			C1085.1,329.7,1081,330.4,1079.2,339.2z"/>
		<path class="st4" d="M666,953.1c-3.2-1.3-0.9-22.9,10.2-43.4c14.1-25.8,31.4-29.8,38-55.6c0.7-2.7,0-0.7,3.6-21.5
			c5.3-30.7,6.7-34.5,7.9-37.1c4.7-10.7,10.3-13.8,25-28c15.3-14.7,13-14.9,35-38.1c44.5-47.2,53.7-60.9,59.9-58
			c6.3,2.9,3.9,20.1,3.6,22.7c-4.6,31.3-31.3,44.3-58.9,76c-31.5,36.3-37,46.8-36.8,57.5c0.2,18.2,20.8,25.9,17.2,36.3
			c-3.4,9.9-21.2,7-40.2,14.1C685,895,671.4,955.4,666,953.1z"/>
	</g>
</g>
<g id="_x31_0-20">
</g>
</svg>
